G75*
%MOIN*%
%OFA0B0*%
%FSLAX25Y25*%
%IPPOS*%
%LPD*%
%AMOC8*
5,1,8,0,0,1.08239X$1,22.5*
%
%ADD10R,0.12611X0.06312*%
%ADD11R,0.07887X0.07099*%
%ADD12R,0.06312X0.06312*%
%ADD13R,0.07099X0.07887*%
%ADD14OC8,0.08200*%
%ADD15R,0.02000X0.04700*%
%ADD16OC8,0.13855*%
%ADD17R,0.04700X0.02000*%
D10*
X0138963Y0045108D03*
X0157861Y0045108D03*
X0129711Y0055817D03*
X0110814Y0055817D03*
D11*
X0176995Y0052746D03*
X0208885Y0050148D03*
X0176995Y0041722D03*
X0208885Y0061171D03*
X0260459Y0064242D03*
X0298648Y0061722D03*
X0260459Y0053219D03*
X0298648Y0050699D03*
X0312900Y0032825D03*
X0322428Y0032785D03*
X0322428Y0021762D03*
X0312900Y0021801D03*
X0415971Y0032510D03*
X0415971Y0043533D03*
D12*
X0166562Y0062116D03*
X0151601Y0062116D03*
X0147664Y0023927D03*
X0132703Y0023927D03*
D13*
X0204987Y0038652D03*
X0216010Y0038652D03*
X0222703Y0022156D03*
X0233727Y0022156D03*
X0273491Y0045738D03*
X0284514Y0045738D03*
X0338451Y0060699D03*
X0349475Y0060699D03*
X0382703Y0061919D03*
X0393727Y0061919D03*
X0426325Y0061526D03*
X0437349Y0061526D03*
D14*
X0092270Y0064793D03*
X0082270Y0064793D03*
X0082270Y0054793D03*
X0092270Y0054793D03*
X0092270Y0044793D03*
X0082270Y0044793D03*
X0082270Y0034793D03*
X0092270Y0034793D03*
X0092270Y0074793D03*
X0082270Y0074793D03*
D15*
X0225440Y0055257D03*
X0227940Y0055257D03*
X0230440Y0055257D03*
X0232940Y0055257D03*
X0235440Y0055257D03*
X0237940Y0055257D03*
X0240440Y0055257D03*
X0240440Y0033857D03*
X0237940Y0033857D03*
X0235440Y0033857D03*
X0232940Y0033857D03*
X0230440Y0033857D03*
X0227940Y0033857D03*
X0225440Y0033857D03*
D16*
X0118766Y0025266D03*
X0162467Y0025266D03*
X0207743Y0024872D03*
X0252625Y0024872D03*
X0299475Y0024872D03*
X0345144Y0025266D03*
X0390420Y0024872D03*
X0433333Y0024872D03*
X0453806Y0068179D03*
X0432546Y0076841D03*
X0410892Y0068179D03*
X0389633Y0076841D03*
X0365617Y0068573D03*
X0344357Y0077234D03*
X0319948Y0068179D03*
X0298688Y0076841D03*
X0273097Y0068179D03*
X0251837Y0076841D03*
X0228215Y0068179D03*
X0206955Y0076841D03*
X0182940Y0068573D03*
X0161680Y0077234D03*
X0139239Y0068573D03*
X0117979Y0077234D03*
D17*
X0377751Y0052844D03*
X0377751Y0050344D03*
X0377751Y0047844D03*
X0377751Y0045344D03*
X0377751Y0042844D03*
X0377751Y0040344D03*
X0377751Y0037844D03*
X0399151Y0037844D03*
X0399151Y0040344D03*
X0399151Y0042844D03*
X0399151Y0045344D03*
X0399151Y0047844D03*
X0399151Y0050344D03*
X0399151Y0052844D03*
M02*
