G75*
%MOIN*%
%OFA0B0*%
%FSLAX25Y25*%
%IPPOS*%
%LPD*%
%AMOC8*
5,1,8,0,0,1.08239X$1,22.5*
%
%ADD10C,0.00000*%
%ADD11OC8,0.07400*%
%ADD12OC8,0.13055*%
%ADD13C,0.00800*%
%ADD14C,0.04000*%
%ADD15C,0.01600*%
D10*
X0067192Y0017392D02*
X0461680Y0016604D01*
X0461955Y0086093D01*
X0066798Y0085699D01*
X0067192Y0017392D01*
D11*
X0082270Y0034793D03*
X0092270Y0034793D03*
X0092270Y0044793D03*
X0082270Y0044793D03*
X0082270Y0054793D03*
X0092270Y0054793D03*
X0092270Y0064793D03*
X0082270Y0064793D03*
X0082270Y0074793D03*
X0092270Y0074793D03*
D12*
X0117979Y0077234D03*
X0139239Y0068573D03*
X0161680Y0077234D03*
X0182940Y0068573D03*
X0206955Y0076841D03*
X0228215Y0068179D03*
X0251837Y0076841D03*
X0273097Y0068179D03*
X0298688Y0076841D03*
X0319948Y0068179D03*
X0344357Y0077234D03*
X0365617Y0068573D03*
X0389633Y0076841D03*
X0410892Y0068179D03*
X0432546Y0076841D03*
X0453806Y0068179D03*
X0433333Y0024872D03*
X0390420Y0024872D03*
X0345144Y0025266D03*
X0299475Y0024872D03*
X0252625Y0024872D03*
X0207743Y0024872D03*
X0162467Y0025266D03*
X0118766Y0025266D03*
D13*
X0118392Y0025392D01*
X0111992Y0025392D01*
X0092792Y0044592D01*
X0092270Y0044793D01*
X0091992Y0045392D01*
X0082392Y0045392D01*
X0082270Y0044793D01*
X0082392Y0045392D02*
X0082392Y0054192D01*
X0082270Y0054793D01*
X0082392Y0054992D01*
X0082392Y0064592D01*
X0082270Y0064793D01*
X0082392Y0065392D01*
X0091992Y0065392D01*
X0092270Y0064793D01*
X0092270Y0054793D02*
X0091992Y0054192D01*
X0091992Y0045392D01*
X0091992Y0034992D02*
X0082392Y0034992D01*
X0082270Y0034793D01*
X0091992Y0034992D02*
X0092270Y0034793D01*
X0118392Y0076592D02*
X0143192Y0051792D01*
X0215992Y0051792D01*
X0221592Y0054992D02*
X0226392Y0050192D01*
X0231192Y0050192D01*
X0247992Y0044592D02*
X0231992Y0028592D01*
X0251992Y0025392D02*
X0252625Y0024872D01*
X0252792Y0025392D01*
X0258392Y0030992D01*
X0293592Y0030992D01*
X0299192Y0025392D01*
X0299475Y0024872D01*
X0293592Y0030992D02*
X0293592Y0036592D01*
X0251992Y0025392D02*
X0207992Y0025392D01*
X0207743Y0024872D01*
X0234392Y0042192D02*
X0243192Y0042192D01*
X0255992Y0054992D01*
X0332792Y0054992D01*
X0385592Y0044592D02*
X0247992Y0044592D01*
X0345144Y0025266D02*
X0345592Y0025392D01*
X0390392Y0025392D01*
X0390420Y0024872D01*
X0118392Y0076592D02*
X0117979Y0077234D01*
X0092270Y0074793D02*
X0091992Y0074992D01*
X0082392Y0074992D01*
X0082270Y0074793D01*
D14*
X0215992Y0051792D03*
X0221592Y0054992D03*
X0231192Y0050192D03*
X0234392Y0042192D03*
X0231992Y0028592D03*
X0293592Y0036592D03*
X0332792Y0054992D03*
X0385592Y0044592D03*
D15*
X0389192Y0044566D02*
X0460191Y0044566D01*
X0460184Y0042968D02*
X0388816Y0042968D01*
X0388644Y0042552D02*
X0389192Y0043876D01*
X0389192Y0045308D01*
X0388644Y0046631D01*
X0387631Y0047644D01*
X0386308Y0048192D01*
X0384876Y0048192D01*
X0383552Y0047644D01*
X0382540Y0046631D01*
X0382523Y0046592D01*
X0250420Y0046592D01*
X0256820Y0052992D01*
X0329723Y0052992D01*
X0329740Y0052952D01*
X0330752Y0051940D01*
X0332076Y0051392D01*
X0333508Y0051392D01*
X0334831Y0051940D01*
X0335844Y0052952D01*
X0336392Y0054276D01*
X0336392Y0055708D01*
X0335844Y0057031D01*
X0334831Y0058044D01*
X0333508Y0058592D01*
X0332076Y0058592D01*
X0330752Y0058044D01*
X0329740Y0057031D01*
X0329723Y0056992D01*
X0255163Y0056992D01*
X0253992Y0055820D01*
X0242363Y0044192D01*
X0237460Y0044192D01*
X0237444Y0044231D01*
X0236431Y0045244D01*
X0235108Y0045792D01*
X0233676Y0045792D01*
X0232352Y0045244D01*
X0231340Y0044231D01*
X0230792Y0042908D01*
X0230792Y0041476D01*
X0231340Y0040152D01*
X0232352Y0039140D01*
X0233676Y0038592D01*
X0235108Y0038592D01*
X0236431Y0039140D01*
X0237444Y0040152D01*
X0237460Y0040192D01*
X0240763Y0040192D01*
X0232747Y0032175D01*
X0232708Y0032192D01*
X0231276Y0032192D01*
X0229952Y0031644D01*
X0228940Y0030631D01*
X0228392Y0029308D01*
X0228392Y0027876D01*
X0228592Y0027392D01*
X0215870Y0027392D01*
X0215870Y0028239D01*
X0211109Y0033000D01*
X0204376Y0033000D01*
X0199615Y0028239D01*
X0199615Y0021505D01*
X0202399Y0018722D01*
X0167487Y0018792D01*
X0170595Y0021899D01*
X0170595Y0028632D01*
X0165834Y0033393D01*
X0159101Y0033393D01*
X0154340Y0028632D01*
X0154340Y0021899D01*
X0157427Y0018812D01*
X0123873Y0018879D01*
X0126894Y0021899D01*
X0126894Y0028632D01*
X0122133Y0033393D01*
X0115400Y0033393D01*
X0111109Y0029103D01*
X0097570Y0042641D01*
X0097570Y0046989D01*
X0094766Y0049793D01*
X0097570Y0052598D01*
X0097570Y0056989D01*
X0094766Y0059793D01*
X0097570Y0062598D01*
X0097570Y0066989D01*
X0094766Y0069793D01*
X0097570Y0072598D01*
X0097570Y0076989D01*
X0094466Y0080093D01*
X0090075Y0080093D01*
X0087270Y0077289D01*
X0084466Y0080093D01*
X0080075Y0080093D01*
X0076970Y0076989D01*
X0076970Y0072598D01*
X0079775Y0069793D01*
X0076970Y0066989D01*
X0076970Y0062598D01*
X0079775Y0059793D01*
X0076970Y0056989D01*
X0076970Y0052598D01*
X0079775Y0049793D01*
X0076970Y0046989D01*
X0076970Y0042598D01*
X0079775Y0039793D01*
X0076970Y0036989D01*
X0076970Y0032598D01*
X0080075Y0029493D01*
X0084466Y0029493D01*
X0087270Y0032298D01*
X0090075Y0029493D01*
X0094466Y0029493D01*
X0097570Y0032598D01*
X0097570Y0036985D01*
X0110639Y0023916D01*
X0110639Y0021899D01*
X0113639Y0018899D01*
X0068782Y0018989D01*
X0068407Y0084100D01*
X0113396Y0084145D01*
X0109851Y0080601D01*
X0109851Y0073868D01*
X0114612Y0069107D01*
X0121346Y0069107D01*
X0122197Y0069958D01*
X0142363Y0049792D01*
X0212923Y0049792D01*
X0212940Y0049752D01*
X0213952Y0048740D01*
X0215276Y0048192D01*
X0216708Y0048192D01*
X0218031Y0048740D01*
X0219044Y0049752D01*
X0219592Y0051076D01*
X0219592Y0051924D01*
X0220876Y0051392D01*
X0222308Y0051392D01*
X0222347Y0051408D01*
X0225563Y0048192D01*
X0228123Y0048192D01*
X0228140Y0048152D01*
X0229152Y0047140D01*
X0230476Y0046592D01*
X0231908Y0046592D01*
X0233231Y0047140D01*
X0234244Y0048152D01*
X0234792Y0049476D01*
X0234792Y0050908D01*
X0234244Y0052231D01*
X0233231Y0053244D01*
X0231908Y0053792D01*
X0230476Y0053792D01*
X0229152Y0053244D01*
X0228140Y0052231D01*
X0228123Y0052192D01*
X0227220Y0052192D01*
X0225175Y0054236D01*
X0225192Y0054276D01*
X0225192Y0055708D01*
X0224644Y0057031D01*
X0223631Y0058044D01*
X0222308Y0058592D01*
X0220876Y0058592D01*
X0219552Y0058044D01*
X0218540Y0057031D01*
X0217992Y0055708D01*
X0217992Y0054860D01*
X0216708Y0055392D01*
X0215276Y0055392D01*
X0213952Y0054844D01*
X0212940Y0053831D01*
X0212923Y0053792D01*
X0144020Y0053792D01*
X0137366Y0060445D01*
X0142605Y0060445D01*
X0147366Y0065206D01*
X0147366Y0071939D01*
X0142605Y0076700D01*
X0135872Y0076700D01*
X0131111Y0071939D01*
X0131111Y0066700D01*
X0125025Y0072786D01*
X0126107Y0073868D01*
X0126107Y0080601D01*
X0122553Y0084154D01*
X0157140Y0084189D01*
X0153552Y0080601D01*
X0153552Y0073868D01*
X0158313Y0069107D01*
X0165046Y0069107D01*
X0169807Y0073868D01*
X0169807Y0080601D01*
X0166210Y0084198D01*
X0202855Y0084234D01*
X0198828Y0080207D01*
X0198828Y0073474D01*
X0203589Y0068713D01*
X0210322Y0068713D01*
X0215083Y0073474D01*
X0215083Y0080207D01*
X0211047Y0084243D01*
X0247782Y0084279D01*
X0243710Y0080207D01*
X0243710Y0073474D01*
X0248471Y0068713D01*
X0255204Y0068713D01*
X0259965Y0073474D01*
X0259965Y0080207D01*
X0255885Y0084287D01*
X0294679Y0084326D01*
X0290560Y0080207D01*
X0290560Y0073474D01*
X0295321Y0068713D01*
X0302054Y0068713D01*
X0306815Y0073474D01*
X0306815Y0080207D01*
X0302688Y0084334D01*
X0340000Y0084371D01*
X0336229Y0080601D01*
X0336229Y0073868D01*
X0340990Y0069107D01*
X0347723Y0069107D01*
X0352484Y0073868D01*
X0352484Y0080601D01*
X0348706Y0084380D01*
X0385714Y0084417D01*
X0381505Y0080207D01*
X0381505Y0073474D01*
X0386266Y0068713D01*
X0392999Y0068713D01*
X0397760Y0073474D01*
X0397760Y0080207D01*
X0393543Y0084424D01*
X0428671Y0084459D01*
X0424418Y0080207D01*
X0424418Y0073474D01*
X0429179Y0068713D01*
X0435912Y0068713D01*
X0440673Y0073474D01*
X0440673Y0080207D01*
X0436413Y0084467D01*
X0460349Y0084491D01*
X0460304Y0073175D01*
X0457172Y0076307D01*
X0450439Y0076307D01*
X0445678Y0071546D01*
X0445678Y0064813D01*
X0450439Y0060052D01*
X0457172Y0060052D01*
X0460264Y0063144D01*
X0460086Y0018207D01*
X0438207Y0018251D01*
X0441461Y0021505D01*
X0441461Y0028239D01*
X0436700Y0033000D01*
X0429967Y0033000D01*
X0425206Y0028239D01*
X0425206Y0021505D01*
X0428441Y0018271D01*
X0395379Y0018337D01*
X0398547Y0021505D01*
X0398547Y0028239D01*
X0393786Y0033000D01*
X0387053Y0033000D01*
X0382292Y0028239D01*
X0382292Y0027392D01*
X0353272Y0027392D01*
X0353272Y0028632D01*
X0348511Y0033393D01*
X0341778Y0033393D01*
X0337017Y0028632D01*
X0337017Y0021899D01*
X0340470Y0018446D01*
X0304615Y0018518D01*
X0307603Y0021505D01*
X0307603Y0028239D01*
X0302842Y0033000D01*
X0296109Y0033000D01*
X0295592Y0032483D01*
X0295592Y0033524D01*
X0295631Y0033540D01*
X0296644Y0034552D01*
X0297192Y0035876D01*
X0297192Y0037308D01*
X0296644Y0038631D01*
X0295631Y0039644D01*
X0294308Y0040192D01*
X0292876Y0040192D01*
X0291552Y0039644D01*
X0290540Y0038631D01*
X0289992Y0037308D01*
X0289992Y0035876D01*
X0290540Y0034552D01*
X0291552Y0033540D01*
X0291592Y0033524D01*
X0291592Y0032992D01*
X0257563Y0032992D01*
X0256781Y0032210D01*
X0255991Y0033000D01*
X0249258Y0033000D01*
X0244497Y0028239D01*
X0244497Y0027392D01*
X0235391Y0027392D01*
X0235592Y0027876D01*
X0235592Y0029308D01*
X0235575Y0029347D01*
X0248820Y0042592D01*
X0382523Y0042592D01*
X0382540Y0042552D01*
X0383552Y0041540D01*
X0384876Y0040992D01*
X0386308Y0040992D01*
X0387631Y0041540D01*
X0388644Y0042552D01*
X0387219Y0041369D02*
X0460178Y0041369D01*
X0460172Y0039771D02*
X0295324Y0039771D01*
X0296833Y0038172D02*
X0460165Y0038172D01*
X0460159Y0036574D02*
X0297192Y0036574D01*
X0296819Y0034975D02*
X0460153Y0034975D01*
X0460146Y0033377D02*
X0348527Y0033377D01*
X0350126Y0031778D02*
X0385832Y0031778D01*
X0384234Y0030180D02*
X0351724Y0030180D01*
X0353272Y0028581D02*
X0382635Y0028581D01*
X0395008Y0031778D02*
X0428746Y0031778D01*
X0427147Y0030180D02*
X0396606Y0030180D01*
X0398205Y0028581D02*
X0425548Y0028581D01*
X0425206Y0026983D02*
X0398547Y0026983D01*
X0398547Y0025384D02*
X0425206Y0025384D01*
X0425206Y0023786D02*
X0398547Y0023786D01*
X0398547Y0022187D02*
X0425206Y0022187D01*
X0426123Y0020589D02*
X0397631Y0020589D01*
X0396032Y0018990D02*
X0427721Y0018990D01*
X0438946Y0018990D02*
X0460089Y0018990D01*
X0460096Y0020589D02*
X0440544Y0020589D01*
X0441461Y0022187D02*
X0460102Y0022187D01*
X0460108Y0023786D02*
X0441461Y0023786D01*
X0441461Y0025384D02*
X0460115Y0025384D01*
X0460121Y0026983D02*
X0441461Y0026983D01*
X0441118Y0028581D02*
X0460127Y0028581D01*
X0460134Y0030180D02*
X0439520Y0030180D01*
X0437921Y0031778D02*
X0460140Y0031778D01*
X0460197Y0046165D02*
X0388837Y0046165D01*
X0387342Y0047763D02*
X0460203Y0047763D01*
X0460210Y0049362D02*
X0253190Y0049362D01*
X0251592Y0047763D02*
X0383842Y0047763D01*
X0383964Y0041369D02*
X0247598Y0041369D01*
X0245999Y0039771D02*
X0291860Y0039771D01*
X0290350Y0038172D02*
X0244401Y0038172D01*
X0242802Y0036574D02*
X0289992Y0036574D01*
X0290365Y0034975D02*
X0241204Y0034975D01*
X0237145Y0036574D02*
X0103638Y0036574D01*
X0105236Y0034975D02*
X0235547Y0034975D01*
X0233948Y0033377D02*
X0165850Y0033377D01*
X0167449Y0031778D02*
X0203155Y0031778D01*
X0201556Y0030180D02*
X0169047Y0030180D01*
X0170595Y0028581D02*
X0199958Y0028581D01*
X0199615Y0026983D02*
X0170595Y0026983D01*
X0170595Y0025384D02*
X0199615Y0025384D01*
X0199615Y0023786D02*
X0170595Y0023786D01*
X0170595Y0022187D02*
X0199615Y0022187D01*
X0200532Y0020589D02*
X0169284Y0020589D01*
X0167686Y0018990D02*
X0202130Y0018990D01*
X0213065Y0018701D02*
X0215870Y0021505D01*
X0215870Y0023392D01*
X0244497Y0023392D01*
X0244497Y0021505D01*
X0247371Y0018632D01*
X0213065Y0018701D01*
X0213355Y0018990D02*
X0247012Y0018990D01*
X0245414Y0020589D02*
X0214954Y0020589D01*
X0215870Y0022187D02*
X0244497Y0022187D01*
X0257858Y0018611D02*
X0260752Y0021505D01*
X0260752Y0028239D01*
X0259999Y0028992D01*
X0292101Y0028992D01*
X0291348Y0028239D01*
X0291348Y0021505D01*
X0294315Y0018538D01*
X0257858Y0018611D01*
X0258237Y0018990D02*
X0293863Y0018990D01*
X0292264Y0020589D02*
X0259835Y0020589D01*
X0260752Y0022187D02*
X0291348Y0022187D01*
X0291348Y0023786D02*
X0260752Y0023786D01*
X0260752Y0025384D02*
X0291348Y0025384D01*
X0291348Y0026983D02*
X0260752Y0026983D01*
X0260409Y0028581D02*
X0291690Y0028581D01*
X0291592Y0033377D02*
X0239605Y0033377D01*
X0238007Y0031778D02*
X0248037Y0031778D01*
X0246438Y0030180D02*
X0236408Y0030180D01*
X0235592Y0028581D02*
X0244840Y0028581D01*
X0230278Y0031778D02*
X0212331Y0031778D01*
X0213929Y0030180D02*
X0228753Y0030180D01*
X0228392Y0028581D02*
X0215528Y0028581D01*
X0238744Y0038172D02*
X0102039Y0038172D01*
X0100441Y0039771D02*
X0231721Y0039771D01*
X0237062Y0039771D02*
X0240342Y0039771D01*
X0230836Y0041369D02*
X0098842Y0041369D01*
X0097570Y0042968D02*
X0230816Y0042968D01*
X0231675Y0044566D02*
X0097570Y0044566D01*
X0097570Y0046165D02*
X0244336Y0046165D01*
X0242738Y0044566D02*
X0237108Y0044566D01*
X0233854Y0047763D02*
X0245935Y0047763D01*
X0247533Y0049362D02*
X0234744Y0049362D01*
X0234770Y0050960D02*
X0249132Y0050960D01*
X0250730Y0052559D02*
X0233916Y0052559D01*
X0228468Y0052559D02*
X0226853Y0052559D01*
X0222794Y0050960D02*
X0219544Y0050960D01*
X0218653Y0049362D02*
X0224393Y0049362D01*
X0228529Y0047763D02*
X0096796Y0047763D01*
X0095197Y0049362D02*
X0213330Y0049362D01*
X0213266Y0054157D02*
X0143654Y0054157D01*
X0142056Y0055756D02*
X0218012Y0055756D01*
X0218863Y0057355D02*
X0140457Y0057355D01*
X0138859Y0058953D02*
X0460248Y0058953D01*
X0460241Y0057355D02*
X0335520Y0057355D01*
X0336372Y0055756D02*
X0460235Y0055756D01*
X0460229Y0054157D02*
X0336343Y0054157D01*
X0335450Y0052559D02*
X0460222Y0052559D01*
X0460216Y0050960D02*
X0254789Y0050960D01*
X0256387Y0052559D02*
X0330133Y0052559D01*
X0330063Y0057355D02*
X0224320Y0057355D01*
X0225172Y0055756D02*
X0253927Y0055756D01*
X0252329Y0054157D02*
X0225254Y0054157D01*
X0224849Y0060052D02*
X0231582Y0060052D01*
X0236343Y0064813D01*
X0236343Y0071546D01*
X0231582Y0076307D01*
X0224849Y0076307D01*
X0220088Y0071546D01*
X0220088Y0064813D01*
X0224849Y0060052D01*
X0224349Y0060552D02*
X0186412Y0060552D01*
X0186306Y0060445D02*
X0191067Y0065206D01*
X0191067Y0071939D01*
X0186306Y0076700D01*
X0179573Y0076700D01*
X0174812Y0071939D01*
X0174812Y0065206D01*
X0179573Y0060445D01*
X0186306Y0060445D01*
X0188011Y0062150D02*
X0222750Y0062150D01*
X0221152Y0063749D02*
X0189609Y0063749D01*
X0191067Y0065347D02*
X0220088Y0065347D01*
X0220088Y0066946D02*
X0191067Y0066946D01*
X0191067Y0068544D02*
X0220088Y0068544D01*
X0220088Y0070143D02*
X0211752Y0070143D01*
X0213350Y0071741D02*
X0220283Y0071741D01*
X0221882Y0073340D02*
X0214949Y0073340D01*
X0215083Y0074938D02*
X0223480Y0074938D01*
X0215083Y0076537D02*
X0243710Y0076537D01*
X0243710Y0078135D02*
X0215083Y0078135D01*
X0215083Y0079734D02*
X0243710Y0079734D01*
X0244835Y0081332D02*
X0213958Y0081332D01*
X0212359Y0082931D02*
X0246433Y0082931D01*
X0257241Y0082931D02*
X0293284Y0082931D01*
X0291685Y0081332D02*
X0258840Y0081332D01*
X0259965Y0079734D02*
X0290560Y0079734D01*
X0290560Y0078135D02*
X0259965Y0078135D01*
X0259965Y0076537D02*
X0290560Y0076537D01*
X0290560Y0074938D02*
X0277832Y0074938D01*
X0276464Y0076307D02*
X0269731Y0076307D01*
X0264970Y0071546D01*
X0264970Y0064813D01*
X0269731Y0060052D01*
X0276464Y0060052D01*
X0281225Y0064813D01*
X0281225Y0071546D01*
X0276464Y0076307D01*
X0279431Y0073340D02*
X0290694Y0073340D01*
X0292293Y0071741D02*
X0281029Y0071741D01*
X0281225Y0070143D02*
X0293891Y0070143D01*
X0303484Y0070143D02*
X0311820Y0070143D01*
X0311820Y0071546D02*
X0311820Y0064813D01*
X0316581Y0060052D01*
X0323314Y0060052D01*
X0328075Y0064813D01*
X0328075Y0071546D01*
X0323314Y0076307D01*
X0316581Y0076307D01*
X0311820Y0071546D01*
X0312015Y0071741D02*
X0305082Y0071741D01*
X0306681Y0073340D02*
X0313614Y0073340D01*
X0315212Y0074938D02*
X0306815Y0074938D01*
X0306815Y0076537D02*
X0336229Y0076537D01*
X0336229Y0078135D02*
X0306815Y0078135D01*
X0306815Y0079734D02*
X0336229Y0079734D01*
X0336961Y0081332D02*
X0305690Y0081332D01*
X0304092Y0082931D02*
X0338559Y0082931D01*
X0350155Y0082931D02*
X0384229Y0082931D01*
X0382630Y0081332D02*
X0351753Y0081332D01*
X0352484Y0079734D02*
X0381505Y0079734D01*
X0381505Y0078135D02*
X0352484Y0078135D01*
X0352484Y0076537D02*
X0362087Y0076537D01*
X0362250Y0076700D02*
X0357489Y0071939D01*
X0357489Y0065206D01*
X0362250Y0060445D01*
X0368983Y0060445D01*
X0373744Y0065206D01*
X0373744Y0071939D01*
X0368983Y0076700D01*
X0362250Y0076700D01*
X0360488Y0074938D02*
X0352484Y0074938D01*
X0351956Y0073340D02*
X0358889Y0073340D01*
X0357489Y0071741D02*
X0350358Y0071741D01*
X0348759Y0070143D02*
X0357489Y0070143D01*
X0357489Y0068544D02*
X0328075Y0068544D01*
X0328075Y0066946D02*
X0357489Y0066946D01*
X0357489Y0065347D02*
X0328075Y0065347D01*
X0327011Y0063749D02*
X0358947Y0063749D01*
X0360545Y0062150D02*
X0325413Y0062150D01*
X0323814Y0060552D02*
X0362144Y0060552D01*
X0369090Y0060552D02*
X0407026Y0060552D01*
X0407526Y0060052D02*
X0414259Y0060052D01*
X0419020Y0064813D01*
X0419020Y0071546D01*
X0414259Y0076307D01*
X0407526Y0076307D01*
X0402765Y0071546D01*
X0402765Y0064813D01*
X0407526Y0060052D01*
X0414759Y0060552D02*
X0449939Y0060552D01*
X0448341Y0062150D02*
X0416357Y0062150D01*
X0417956Y0063749D02*
X0446742Y0063749D01*
X0445678Y0065347D02*
X0419020Y0065347D01*
X0419020Y0066946D02*
X0445678Y0066946D01*
X0445678Y0068544D02*
X0419020Y0068544D01*
X0419020Y0070143D02*
X0427750Y0070143D01*
X0426151Y0071741D02*
X0418824Y0071741D01*
X0417226Y0073340D02*
X0424553Y0073340D01*
X0424418Y0074938D02*
X0415627Y0074938D01*
X0424418Y0076537D02*
X0397760Y0076537D01*
X0397760Y0078135D02*
X0424418Y0078135D01*
X0424418Y0079734D02*
X0397760Y0079734D01*
X0396635Y0081332D02*
X0425543Y0081332D01*
X0427142Y0082931D02*
X0395036Y0082931D01*
X0381505Y0076537D02*
X0369147Y0076537D01*
X0370746Y0074938D02*
X0381505Y0074938D01*
X0381639Y0073340D02*
X0372344Y0073340D01*
X0373744Y0071741D02*
X0383238Y0071741D01*
X0384836Y0070143D02*
X0373744Y0070143D01*
X0373744Y0068544D02*
X0402765Y0068544D01*
X0402765Y0066946D02*
X0373744Y0066946D01*
X0373744Y0065347D02*
X0402765Y0065347D01*
X0403829Y0063749D02*
X0372287Y0063749D01*
X0370688Y0062150D02*
X0405427Y0062150D01*
X0402765Y0070143D02*
X0394429Y0070143D01*
X0396027Y0071741D02*
X0402960Y0071741D01*
X0404559Y0073340D02*
X0397626Y0073340D01*
X0397760Y0074938D02*
X0406157Y0074938D01*
X0437342Y0070143D02*
X0445678Y0070143D01*
X0445874Y0071741D02*
X0438941Y0071741D01*
X0440539Y0073340D02*
X0447472Y0073340D01*
X0449071Y0074938D02*
X0440673Y0074938D01*
X0440673Y0076537D02*
X0460317Y0076537D01*
X0460324Y0078135D02*
X0440673Y0078135D01*
X0440673Y0079734D02*
X0460330Y0079734D01*
X0460337Y0081332D02*
X0439548Y0081332D01*
X0437950Y0082931D02*
X0460343Y0082931D01*
X0460311Y0074938D02*
X0458541Y0074938D01*
X0460139Y0073340D02*
X0460305Y0073340D01*
X0460260Y0062150D02*
X0459271Y0062150D01*
X0460254Y0060552D02*
X0457672Y0060552D01*
X0339954Y0070143D02*
X0328075Y0070143D01*
X0327880Y0071741D02*
X0338356Y0071741D01*
X0336757Y0073340D02*
X0326281Y0073340D01*
X0324683Y0074938D02*
X0336229Y0074938D01*
X0311820Y0068544D02*
X0281225Y0068544D01*
X0281225Y0066946D02*
X0311820Y0066946D01*
X0311820Y0065347D02*
X0281225Y0065347D01*
X0280161Y0063749D02*
X0312884Y0063749D01*
X0314482Y0062150D02*
X0278562Y0062150D01*
X0276964Y0060552D02*
X0316081Y0060552D01*
X0269231Y0060552D02*
X0232082Y0060552D01*
X0233680Y0062150D02*
X0267632Y0062150D01*
X0266034Y0063749D02*
X0235279Y0063749D01*
X0236343Y0065347D02*
X0264970Y0065347D01*
X0264970Y0066946D02*
X0236343Y0066946D01*
X0236343Y0068544D02*
X0264970Y0068544D01*
X0264970Y0070143D02*
X0256633Y0070143D01*
X0258232Y0071741D02*
X0265165Y0071741D01*
X0266764Y0073340D02*
X0259830Y0073340D01*
X0259965Y0074938D02*
X0268362Y0074938D01*
X0247041Y0070143D02*
X0236343Y0070143D01*
X0236147Y0071741D02*
X0245443Y0071741D01*
X0243844Y0073340D02*
X0234549Y0073340D01*
X0232950Y0074938D02*
X0243710Y0074938D01*
X0202159Y0070143D02*
X0191067Y0070143D01*
X0191067Y0071741D02*
X0200561Y0071741D01*
X0198962Y0073340D02*
X0189667Y0073340D01*
X0188068Y0074938D02*
X0198828Y0074938D01*
X0198828Y0076537D02*
X0186470Y0076537D01*
X0179409Y0076537D02*
X0169807Y0076537D01*
X0169807Y0078135D02*
X0198828Y0078135D01*
X0198828Y0079734D02*
X0169807Y0079734D01*
X0169076Y0081332D02*
X0199953Y0081332D01*
X0201551Y0082931D02*
X0167477Y0082931D01*
X0155882Y0082931D02*
X0123777Y0082931D01*
X0125375Y0081332D02*
X0154284Y0081332D01*
X0153552Y0079734D02*
X0126107Y0079734D01*
X0126107Y0078135D02*
X0153552Y0078135D01*
X0153552Y0076537D02*
X0142769Y0076537D01*
X0144368Y0074938D02*
X0153552Y0074938D01*
X0154080Y0073340D02*
X0145966Y0073340D01*
X0147366Y0071741D02*
X0155679Y0071741D01*
X0157277Y0070143D02*
X0147366Y0070143D01*
X0147366Y0068544D02*
X0174812Y0068544D01*
X0174812Y0066946D02*
X0147366Y0066946D01*
X0147366Y0065347D02*
X0174812Y0065347D01*
X0176270Y0063749D02*
X0145909Y0063749D01*
X0144310Y0062150D02*
X0177868Y0062150D01*
X0179467Y0060552D02*
X0142712Y0060552D01*
X0133202Y0058953D02*
X0095606Y0058953D01*
X0097204Y0057355D02*
X0134800Y0057355D01*
X0136399Y0055756D02*
X0097570Y0055756D01*
X0097570Y0054157D02*
X0137997Y0054157D01*
X0139596Y0052559D02*
X0097531Y0052559D01*
X0095933Y0050960D02*
X0141194Y0050960D01*
X0131603Y0060552D02*
X0095524Y0060552D01*
X0097122Y0062150D02*
X0130005Y0062150D01*
X0128406Y0063749D02*
X0097570Y0063749D01*
X0097570Y0065347D02*
X0126808Y0065347D01*
X0125209Y0066946D02*
X0097570Y0066946D01*
X0096015Y0068544D02*
X0123611Y0068544D01*
X0127669Y0070143D02*
X0131111Y0070143D01*
X0131111Y0071741D02*
X0126071Y0071741D01*
X0125578Y0073340D02*
X0132512Y0073340D01*
X0134110Y0074938D02*
X0126107Y0074938D01*
X0126107Y0076537D02*
X0135709Y0076537D01*
X0113577Y0070143D02*
X0095115Y0070143D01*
X0096713Y0071741D02*
X0111978Y0071741D01*
X0110380Y0073340D02*
X0097570Y0073340D01*
X0097570Y0074938D02*
X0109851Y0074938D01*
X0109851Y0076537D02*
X0097570Y0076537D01*
X0096424Y0078135D02*
X0109851Y0078135D01*
X0109851Y0079734D02*
X0094825Y0079734D01*
X0089715Y0079734D02*
X0084825Y0079734D01*
X0079715Y0079734D02*
X0068432Y0079734D01*
X0068423Y0081332D02*
X0110583Y0081332D01*
X0112181Y0082931D02*
X0068414Y0082931D01*
X0068441Y0078135D02*
X0078117Y0078135D01*
X0076970Y0076537D02*
X0068451Y0076537D01*
X0068460Y0074938D02*
X0076970Y0074938D01*
X0076970Y0073340D02*
X0068469Y0073340D01*
X0068478Y0071741D02*
X0077827Y0071741D01*
X0079426Y0070143D02*
X0068488Y0070143D01*
X0068497Y0068544D02*
X0078526Y0068544D01*
X0076970Y0066946D02*
X0068506Y0066946D01*
X0068515Y0065347D02*
X0076970Y0065347D01*
X0076970Y0063749D02*
X0068524Y0063749D01*
X0068534Y0062150D02*
X0077418Y0062150D01*
X0079017Y0060552D02*
X0068543Y0060552D01*
X0068552Y0058953D02*
X0078935Y0058953D01*
X0077336Y0057355D02*
X0068561Y0057355D01*
X0068570Y0055756D02*
X0076970Y0055756D01*
X0076970Y0054157D02*
X0068580Y0054157D01*
X0068589Y0052559D02*
X0077009Y0052559D01*
X0078608Y0050960D02*
X0068598Y0050960D01*
X0068607Y0049362D02*
X0079344Y0049362D01*
X0077745Y0047763D02*
X0068617Y0047763D01*
X0068626Y0046165D02*
X0076970Y0046165D01*
X0076970Y0044566D02*
X0068635Y0044566D01*
X0068644Y0042968D02*
X0076970Y0042968D01*
X0078199Y0041369D02*
X0068653Y0041369D01*
X0068663Y0039771D02*
X0079753Y0039771D01*
X0078154Y0038172D02*
X0068672Y0038172D01*
X0068681Y0036574D02*
X0076970Y0036574D01*
X0076970Y0034975D02*
X0068690Y0034975D01*
X0068699Y0033377D02*
X0076970Y0033377D01*
X0077790Y0031778D02*
X0068709Y0031778D01*
X0068718Y0030180D02*
X0079388Y0030180D01*
X0085152Y0030180D02*
X0089388Y0030180D01*
X0087790Y0031778D02*
X0086751Y0031778D01*
X0095152Y0030180D02*
X0104375Y0030180D01*
X0102777Y0031778D02*
X0096751Y0031778D01*
X0097570Y0033377D02*
X0101178Y0033377D01*
X0099580Y0034975D02*
X0097570Y0034975D01*
X0097570Y0036574D02*
X0097981Y0036574D01*
X0089775Y0039793D02*
X0087270Y0037289D01*
X0084766Y0039793D01*
X0087270Y0042298D01*
X0089775Y0039793D01*
X0089753Y0039771D02*
X0084788Y0039771D01*
X0086387Y0038172D02*
X0088154Y0038172D01*
X0088199Y0041369D02*
X0086342Y0041369D01*
X0087167Y0047392D02*
X0084766Y0049793D01*
X0087270Y0052298D01*
X0089775Y0049793D01*
X0087373Y0047392D01*
X0087167Y0047392D01*
X0086796Y0047763D02*
X0087745Y0047763D01*
X0089344Y0049362D02*
X0085197Y0049362D01*
X0085933Y0050960D02*
X0088608Y0050960D01*
X0087270Y0057289D02*
X0084766Y0059793D01*
X0087270Y0062298D01*
X0089775Y0059793D01*
X0087270Y0057289D01*
X0087204Y0057355D02*
X0087336Y0057355D01*
X0088935Y0058953D02*
X0085606Y0058953D01*
X0085524Y0060552D02*
X0089017Y0060552D01*
X0087418Y0062150D02*
X0087122Y0062150D01*
X0087167Y0067392D02*
X0084766Y0069793D01*
X0087270Y0072298D01*
X0089775Y0069793D01*
X0087373Y0067392D01*
X0087167Y0067392D01*
X0086015Y0068544D02*
X0088526Y0068544D01*
X0089426Y0070143D02*
X0085115Y0070143D01*
X0086713Y0071741D02*
X0087827Y0071741D01*
X0088117Y0078135D02*
X0086424Y0078135D01*
X0129268Y0068544D02*
X0131111Y0068544D01*
X0131111Y0066946D02*
X0130866Y0066946D01*
X0166082Y0070143D02*
X0174812Y0070143D01*
X0174812Y0071741D02*
X0167681Y0071741D01*
X0169279Y0073340D02*
X0176212Y0073340D01*
X0177811Y0074938D02*
X0169807Y0074938D01*
X0159084Y0033377D02*
X0122149Y0033377D01*
X0123748Y0031778D02*
X0157486Y0031778D01*
X0155887Y0030180D02*
X0125346Y0030180D01*
X0126894Y0028581D02*
X0154340Y0028581D01*
X0154340Y0026983D02*
X0126894Y0026983D01*
X0126894Y0025384D02*
X0154340Y0025384D01*
X0154340Y0023786D02*
X0126894Y0023786D01*
X0126894Y0022187D02*
X0154340Y0022187D01*
X0155650Y0020589D02*
X0125583Y0020589D01*
X0123985Y0018990D02*
X0157249Y0018990D01*
X0113548Y0018990D02*
X0068782Y0018990D01*
X0068773Y0020589D02*
X0111949Y0020589D01*
X0110639Y0022187D02*
X0068764Y0022187D01*
X0068755Y0023786D02*
X0110639Y0023786D01*
X0109171Y0025384D02*
X0068746Y0025384D01*
X0068736Y0026983D02*
X0107572Y0026983D01*
X0105974Y0028581D02*
X0068727Y0028581D01*
X0106835Y0033377D02*
X0115383Y0033377D01*
X0113785Y0031778D02*
X0108433Y0031778D01*
X0110032Y0030180D02*
X0112186Y0030180D01*
X0295592Y0033377D02*
X0341761Y0033377D01*
X0340163Y0031778D02*
X0304063Y0031778D01*
X0305661Y0030180D02*
X0338564Y0030180D01*
X0337017Y0028581D02*
X0307260Y0028581D01*
X0307603Y0026983D02*
X0337017Y0026983D01*
X0337017Y0025384D02*
X0307603Y0025384D01*
X0307603Y0023786D02*
X0337017Y0023786D01*
X0337017Y0022187D02*
X0307603Y0022187D01*
X0306686Y0020589D02*
X0338327Y0020589D01*
X0339926Y0018990D02*
X0305087Y0018990D01*
X0349800Y0018428D02*
X0353272Y0021899D01*
X0353272Y0023392D01*
X0382292Y0023392D01*
X0382292Y0021505D01*
X0385441Y0018356D01*
X0349800Y0018428D01*
X0350363Y0018990D02*
X0384808Y0018990D01*
X0383209Y0020589D02*
X0351961Y0020589D01*
X0353272Y0022187D02*
X0382292Y0022187D01*
M02*
