G75*
%MOIN*%
%OFA0B0*%
%FSLAX25Y25*%
%IPPOS*%
%LPD*%
%AMOC8*
5,1,8,0,0,1.08239X$1,22.5*
%
%ADD10C,0.00400*%
%ADD11C,0.00600*%
%ADD12C,0.00200*%
D10*
X0135617Y0039006D02*
X0142310Y0032313D01*
X0161207Y0032313D01*
X0161207Y0041368D01*
X0160027Y0041368D02*
X0159932Y0041085D01*
X0159830Y0040804D01*
X0159721Y0040527D01*
X0159606Y0040251D01*
X0159484Y0039979D01*
X0159355Y0039710D01*
X0159220Y0039444D01*
X0159078Y0039182D01*
X0158930Y0038923D01*
X0158776Y0038667D01*
X0158615Y0038416D01*
X0158448Y0038168D01*
X0158276Y0037925D01*
X0158097Y0037686D01*
X0157913Y0037451D01*
X0157723Y0037221D01*
X0157527Y0036996D01*
X0157326Y0036776D01*
X0157120Y0036560D01*
X0156908Y0036350D01*
X0156692Y0036145D01*
X0156470Y0035945D01*
X0156243Y0035751D01*
X0156012Y0035562D01*
X0155777Y0035379D01*
X0155537Y0035202D01*
X0155292Y0035031D01*
X0155044Y0034866D01*
X0154791Y0034707D01*
X0154535Y0034554D01*
X0154275Y0034407D01*
X0154012Y0034267D01*
X0153745Y0034133D01*
X0153475Y0034006D01*
X0153202Y0033886D01*
X0152927Y0033772D01*
X0152648Y0033665D01*
X0152367Y0033565D01*
X0152084Y0033472D01*
X0151798Y0033385D01*
X0151510Y0033306D01*
X0151221Y0033234D01*
X0150930Y0033169D01*
X0150637Y0033111D01*
X0150343Y0033060D01*
X0150048Y0033016D01*
X0149752Y0032980D01*
X0149455Y0032951D01*
X0149157Y0032929D01*
X0148859Y0032914D01*
X0148561Y0032907D01*
X0148263Y0032907D01*
X0147965Y0032914D01*
X0147667Y0032929D01*
X0147369Y0032951D01*
X0147072Y0032980D01*
X0146776Y0033016D01*
X0146481Y0033060D01*
X0146187Y0033111D01*
X0145894Y0033169D01*
X0145603Y0033234D01*
X0145314Y0033306D01*
X0145026Y0033385D01*
X0144740Y0033472D01*
X0144457Y0033565D01*
X0144176Y0033665D01*
X0143897Y0033772D01*
X0143622Y0033886D01*
X0143349Y0034006D01*
X0143079Y0034133D01*
X0142812Y0034267D01*
X0142549Y0034407D01*
X0142289Y0034554D01*
X0142033Y0034707D01*
X0141780Y0034866D01*
X0141532Y0035031D01*
X0141287Y0035202D01*
X0141047Y0035379D01*
X0140812Y0035562D01*
X0140581Y0035751D01*
X0140354Y0035945D01*
X0140132Y0036145D01*
X0139916Y0036350D01*
X0139704Y0036560D01*
X0139498Y0036776D01*
X0139297Y0036996D01*
X0139101Y0037221D01*
X0138911Y0037451D01*
X0138727Y0037686D01*
X0138548Y0037925D01*
X0138376Y0038168D01*
X0138209Y0038416D01*
X0138048Y0038667D01*
X0137894Y0038923D01*
X0137746Y0039182D01*
X0137604Y0039444D01*
X0137469Y0039710D01*
X0137340Y0039979D01*
X0137218Y0040251D01*
X0137103Y0040527D01*
X0136994Y0040804D01*
X0136892Y0041085D01*
X0136797Y0041368D01*
X0135617Y0041368D02*
X0135617Y0039006D01*
X0126365Y0043022D02*
X0133058Y0049715D01*
X0133058Y0052077D01*
X0135617Y0051211D02*
X0135617Y0048848D01*
X0135617Y0051211D02*
X0142310Y0057904D01*
X0161207Y0057904D01*
X0161207Y0048848D01*
X0160027Y0048848D02*
X0159932Y0049131D01*
X0159830Y0049412D01*
X0159721Y0049689D01*
X0159606Y0049965D01*
X0159484Y0050237D01*
X0159355Y0050506D01*
X0159220Y0050772D01*
X0159078Y0051034D01*
X0158930Y0051293D01*
X0158776Y0051549D01*
X0158615Y0051800D01*
X0158448Y0052048D01*
X0158276Y0052291D01*
X0158097Y0052530D01*
X0157913Y0052765D01*
X0157723Y0052995D01*
X0157527Y0053220D01*
X0157326Y0053440D01*
X0157120Y0053656D01*
X0156908Y0053866D01*
X0156692Y0054071D01*
X0156470Y0054271D01*
X0156243Y0054465D01*
X0156012Y0054654D01*
X0155777Y0054837D01*
X0155537Y0055014D01*
X0155292Y0055185D01*
X0155044Y0055350D01*
X0154791Y0055509D01*
X0154535Y0055662D01*
X0154275Y0055809D01*
X0154012Y0055949D01*
X0153745Y0056083D01*
X0153475Y0056210D01*
X0153202Y0056330D01*
X0152927Y0056444D01*
X0152648Y0056551D01*
X0152367Y0056651D01*
X0152084Y0056744D01*
X0151798Y0056831D01*
X0151510Y0056910D01*
X0151221Y0056982D01*
X0150930Y0057047D01*
X0150637Y0057105D01*
X0150343Y0057156D01*
X0150048Y0057200D01*
X0149752Y0057236D01*
X0149455Y0057265D01*
X0149157Y0057287D01*
X0148859Y0057302D01*
X0148561Y0057309D01*
X0148263Y0057309D01*
X0147965Y0057302D01*
X0147667Y0057287D01*
X0147369Y0057265D01*
X0147072Y0057236D01*
X0146776Y0057200D01*
X0146481Y0057156D01*
X0146187Y0057105D01*
X0145894Y0057047D01*
X0145603Y0056982D01*
X0145314Y0056910D01*
X0145026Y0056831D01*
X0144740Y0056744D01*
X0144457Y0056651D01*
X0144176Y0056551D01*
X0143897Y0056444D01*
X0143622Y0056330D01*
X0143349Y0056210D01*
X0143079Y0056083D01*
X0142812Y0055949D01*
X0142549Y0055809D01*
X0142289Y0055662D01*
X0142033Y0055509D01*
X0141780Y0055350D01*
X0141532Y0055185D01*
X0141287Y0055014D01*
X0141047Y0054837D01*
X0140812Y0054654D01*
X0140581Y0054465D01*
X0140354Y0054271D01*
X0140132Y0054071D01*
X0139916Y0053866D01*
X0139704Y0053656D01*
X0139498Y0053440D01*
X0139297Y0053220D01*
X0139101Y0052995D01*
X0138911Y0052765D01*
X0138727Y0052530D01*
X0138548Y0052291D01*
X0138376Y0052048D01*
X0138209Y0051800D01*
X0138048Y0051549D01*
X0137894Y0051293D01*
X0137746Y0051034D01*
X0137604Y0050772D01*
X0137469Y0050506D01*
X0137340Y0050237D01*
X0137218Y0049965D01*
X0137103Y0049689D01*
X0136994Y0049412D01*
X0136892Y0049131D01*
X0136797Y0048848D01*
X0126365Y0043022D02*
X0107467Y0043022D01*
X0107467Y0052077D01*
X0108647Y0059557D02*
X0108742Y0059840D01*
X0108844Y0060121D01*
X0108953Y0060398D01*
X0109068Y0060674D01*
X0109190Y0060946D01*
X0109319Y0061215D01*
X0109454Y0061481D01*
X0109596Y0061743D01*
X0109744Y0062002D01*
X0109898Y0062258D01*
X0110059Y0062509D01*
X0110226Y0062757D01*
X0110398Y0063000D01*
X0110577Y0063239D01*
X0110761Y0063474D01*
X0110951Y0063704D01*
X0111147Y0063929D01*
X0111348Y0064149D01*
X0111554Y0064365D01*
X0111766Y0064575D01*
X0111982Y0064780D01*
X0112204Y0064980D01*
X0112431Y0065174D01*
X0112662Y0065363D01*
X0112897Y0065546D01*
X0113137Y0065723D01*
X0113382Y0065894D01*
X0113630Y0066059D01*
X0113883Y0066218D01*
X0114139Y0066371D01*
X0114399Y0066518D01*
X0114662Y0066658D01*
X0114929Y0066792D01*
X0115199Y0066919D01*
X0115472Y0067039D01*
X0115747Y0067153D01*
X0116026Y0067260D01*
X0116307Y0067360D01*
X0116590Y0067453D01*
X0116876Y0067540D01*
X0117164Y0067619D01*
X0117453Y0067691D01*
X0117744Y0067756D01*
X0118037Y0067814D01*
X0118331Y0067865D01*
X0118626Y0067909D01*
X0118922Y0067945D01*
X0119219Y0067974D01*
X0119517Y0067996D01*
X0119815Y0068011D01*
X0120113Y0068018D01*
X0120411Y0068018D01*
X0120709Y0068011D01*
X0121007Y0067996D01*
X0121305Y0067974D01*
X0121602Y0067945D01*
X0121898Y0067909D01*
X0122193Y0067865D01*
X0122487Y0067814D01*
X0122780Y0067756D01*
X0123071Y0067691D01*
X0123360Y0067619D01*
X0123648Y0067540D01*
X0123934Y0067453D01*
X0124217Y0067360D01*
X0124498Y0067260D01*
X0124777Y0067153D01*
X0125052Y0067039D01*
X0125325Y0066919D01*
X0125595Y0066792D01*
X0125862Y0066658D01*
X0126125Y0066518D01*
X0126385Y0066371D01*
X0126641Y0066218D01*
X0126894Y0066059D01*
X0127142Y0065894D01*
X0127387Y0065723D01*
X0127627Y0065546D01*
X0127862Y0065363D01*
X0128093Y0065174D01*
X0128320Y0064980D01*
X0128542Y0064780D01*
X0128758Y0064575D01*
X0128970Y0064365D01*
X0129176Y0064149D01*
X0129377Y0063929D01*
X0129573Y0063704D01*
X0129763Y0063474D01*
X0129947Y0063239D01*
X0130126Y0063000D01*
X0130298Y0062757D01*
X0130465Y0062509D01*
X0130626Y0062258D01*
X0130780Y0062002D01*
X0130928Y0061743D01*
X0131070Y0061481D01*
X0131205Y0061215D01*
X0131334Y0060946D01*
X0131456Y0060674D01*
X0131571Y0060398D01*
X0131680Y0060121D01*
X0131782Y0059840D01*
X0131877Y0059557D01*
X0133058Y0059557D02*
X0133058Y0061919D01*
X0126365Y0068612D01*
X0107467Y0068612D01*
X0107467Y0059557D01*
X0108647Y0052077D02*
X0108742Y0051794D01*
X0108844Y0051513D01*
X0108953Y0051236D01*
X0109068Y0050960D01*
X0109190Y0050688D01*
X0109319Y0050419D01*
X0109454Y0050153D01*
X0109596Y0049891D01*
X0109744Y0049632D01*
X0109898Y0049376D01*
X0110059Y0049125D01*
X0110226Y0048877D01*
X0110398Y0048634D01*
X0110577Y0048395D01*
X0110761Y0048160D01*
X0110951Y0047930D01*
X0111147Y0047705D01*
X0111348Y0047485D01*
X0111554Y0047269D01*
X0111766Y0047059D01*
X0111982Y0046854D01*
X0112204Y0046654D01*
X0112431Y0046460D01*
X0112662Y0046271D01*
X0112897Y0046088D01*
X0113137Y0045911D01*
X0113382Y0045740D01*
X0113630Y0045575D01*
X0113883Y0045416D01*
X0114139Y0045263D01*
X0114399Y0045116D01*
X0114662Y0044976D01*
X0114929Y0044842D01*
X0115199Y0044715D01*
X0115472Y0044595D01*
X0115747Y0044481D01*
X0116026Y0044374D01*
X0116307Y0044274D01*
X0116590Y0044181D01*
X0116876Y0044094D01*
X0117164Y0044015D01*
X0117453Y0043943D01*
X0117744Y0043878D01*
X0118037Y0043820D01*
X0118331Y0043769D01*
X0118626Y0043725D01*
X0118922Y0043689D01*
X0119219Y0043660D01*
X0119517Y0043638D01*
X0119815Y0043623D01*
X0120113Y0043616D01*
X0120411Y0043616D01*
X0120709Y0043623D01*
X0121007Y0043638D01*
X0121305Y0043660D01*
X0121602Y0043689D01*
X0121898Y0043725D01*
X0122193Y0043769D01*
X0122487Y0043820D01*
X0122780Y0043878D01*
X0123071Y0043943D01*
X0123360Y0044015D01*
X0123648Y0044094D01*
X0123934Y0044181D01*
X0124217Y0044274D01*
X0124498Y0044374D01*
X0124777Y0044481D01*
X0125052Y0044595D01*
X0125325Y0044715D01*
X0125595Y0044842D01*
X0125862Y0044976D01*
X0126125Y0045116D01*
X0126385Y0045263D01*
X0126641Y0045416D01*
X0126894Y0045575D01*
X0127142Y0045740D01*
X0127387Y0045911D01*
X0127627Y0046088D01*
X0127862Y0046271D01*
X0128093Y0046460D01*
X0128320Y0046654D01*
X0128542Y0046854D01*
X0128758Y0047059D01*
X0128970Y0047269D01*
X0129176Y0047485D01*
X0129377Y0047705D01*
X0129573Y0047930D01*
X0129763Y0048160D01*
X0129947Y0048395D01*
X0130126Y0048634D01*
X0130298Y0048877D01*
X0130465Y0049125D01*
X0130626Y0049376D01*
X0130780Y0049632D01*
X0130928Y0049891D01*
X0131070Y0050153D01*
X0131205Y0050419D01*
X0131334Y0050688D01*
X0131456Y0050960D01*
X0131571Y0051236D01*
X0131680Y0051513D01*
X0131782Y0051794D01*
X0131877Y0052077D01*
D11*
X0223040Y0052757D02*
X0223040Y0036357D01*
X0242840Y0036357D01*
X0242840Y0052757D01*
X0223040Y0052757D01*
X0224740Y0049357D02*
X0224742Y0049441D01*
X0224748Y0049526D01*
X0224758Y0049609D01*
X0224772Y0049693D01*
X0224789Y0049775D01*
X0224811Y0049857D01*
X0224836Y0049937D01*
X0224865Y0050016D01*
X0224898Y0050094D01*
X0224934Y0050170D01*
X0224974Y0050245D01*
X0225018Y0050317D01*
X0225064Y0050388D01*
X0225114Y0050456D01*
X0225167Y0050521D01*
X0225223Y0050584D01*
X0225282Y0050645D01*
X0225344Y0050702D01*
X0225408Y0050757D01*
X0225475Y0050808D01*
X0225544Y0050857D01*
X0225616Y0050902D01*
X0225689Y0050943D01*
X0225764Y0050981D01*
X0225841Y0051016D01*
X0225920Y0051047D01*
X0226000Y0051074D01*
X0226081Y0051097D01*
X0226163Y0051117D01*
X0226246Y0051133D01*
X0226329Y0051145D01*
X0226414Y0051153D01*
X0226498Y0051157D01*
X0226582Y0051157D01*
X0226666Y0051153D01*
X0226751Y0051145D01*
X0226834Y0051133D01*
X0226917Y0051117D01*
X0226999Y0051097D01*
X0227080Y0051074D01*
X0227160Y0051047D01*
X0227239Y0051016D01*
X0227316Y0050981D01*
X0227391Y0050943D01*
X0227464Y0050902D01*
X0227536Y0050857D01*
X0227605Y0050808D01*
X0227672Y0050757D01*
X0227736Y0050702D01*
X0227798Y0050645D01*
X0227857Y0050584D01*
X0227913Y0050521D01*
X0227966Y0050456D01*
X0228016Y0050388D01*
X0228062Y0050317D01*
X0228106Y0050245D01*
X0228146Y0050170D01*
X0228182Y0050094D01*
X0228215Y0050016D01*
X0228244Y0049937D01*
X0228269Y0049857D01*
X0228291Y0049775D01*
X0228308Y0049693D01*
X0228322Y0049609D01*
X0228332Y0049526D01*
X0228338Y0049441D01*
X0228340Y0049357D01*
X0228338Y0049273D01*
X0228332Y0049188D01*
X0228322Y0049105D01*
X0228308Y0049021D01*
X0228291Y0048939D01*
X0228269Y0048857D01*
X0228244Y0048777D01*
X0228215Y0048698D01*
X0228182Y0048620D01*
X0228146Y0048544D01*
X0228106Y0048469D01*
X0228062Y0048397D01*
X0228016Y0048326D01*
X0227966Y0048258D01*
X0227913Y0048193D01*
X0227857Y0048130D01*
X0227798Y0048069D01*
X0227736Y0048012D01*
X0227672Y0047957D01*
X0227605Y0047906D01*
X0227536Y0047857D01*
X0227464Y0047812D01*
X0227391Y0047771D01*
X0227316Y0047733D01*
X0227239Y0047698D01*
X0227160Y0047667D01*
X0227080Y0047640D01*
X0226999Y0047617D01*
X0226917Y0047597D01*
X0226834Y0047581D01*
X0226751Y0047569D01*
X0226666Y0047561D01*
X0226582Y0047557D01*
X0226498Y0047557D01*
X0226414Y0047561D01*
X0226329Y0047569D01*
X0226246Y0047581D01*
X0226163Y0047597D01*
X0226081Y0047617D01*
X0226000Y0047640D01*
X0225920Y0047667D01*
X0225841Y0047698D01*
X0225764Y0047733D01*
X0225689Y0047771D01*
X0225616Y0047812D01*
X0225544Y0047857D01*
X0225475Y0047906D01*
X0225408Y0047957D01*
X0225344Y0048012D01*
X0225282Y0048069D01*
X0225223Y0048130D01*
X0225167Y0048193D01*
X0225114Y0048258D01*
X0225064Y0048326D01*
X0225018Y0048397D01*
X0224974Y0048469D01*
X0224934Y0048544D01*
X0224898Y0048620D01*
X0224865Y0048698D01*
X0224836Y0048777D01*
X0224811Y0048857D01*
X0224789Y0048939D01*
X0224772Y0049021D01*
X0224758Y0049105D01*
X0224748Y0049188D01*
X0224742Y0049273D01*
X0224740Y0049357D01*
X0380251Y0055244D02*
X0380251Y0035444D01*
X0396651Y0035444D01*
X0396651Y0055244D01*
X0380251Y0055244D01*
X0381851Y0038944D02*
X0381853Y0039028D01*
X0381859Y0039113D01*
X0381869Y0039196D01*
X0381883Y0039280D01*
X0381900Y0039362D01*
X0381922Y0039444D01*
X0381947Y0039524D01*
X0381976Y0039603D01*
X0382009Y0039681D01*
X0382045Y0039757D01*
X0382085Y0039832D01*
X0382129Y0039904D01*
X0382175Y0039975D01*
X0382225Y0040043D01*
X0382278Y0040108D01*
X0382334Y0040171D01*
X0382393Y0040232D01*
X0382455Y0040289D01*
X0382519Y0040344D01*
X0382586Y0040395D01*
X0382655Y0040444D01*
X0382727Y0040489D01*
X0382800Y0040530D01*
X0382875Y0040568D01*
X0382952Y0040603D01*
X0383031Y0040634D01*
X0383111Y0040661D01*
X0383192Y0040684D01*
X0383274Y0040704D01*
X0383357Y0040720D01*
X0383440Y0040732D01*
X0383525Y0040740D01*
X0383609Y0040744D01*
X0383693Y0040744D01*
X0383777Y0040740D01*
X0383862Y0040732D01*
X0383945Y0040720D01*
X0384028Y0040704D01*
X0384110Y0040684D01*
X0384191Y0040661D01*
X0384271Y0040634D01*
X0384350Y0040603D01*
X0384427Y0040568D01*
X0384502Y0040530D01*
X0384575Y0040489D01*
X0384647Y0040444D01*
X0384716Y0040395D01*
X0384783Y0040344D01*
X0384847Y0040289D01*
X0384909Y0040232D01*
X0384968Y0040171D01*
X0385024Y0040108D01*
X0385077Y0040043D01*
X0385127Y0039975D01*
X0385173Y0039904D01*
X0385217Y0039832D01*
X0385257Y0039757D01*
X0385293Y0039681D01*
X0385326Y0039603D01*
X0385355Y0039524D01*
X0385380Y0039444D01*
X0385402Y0039362D01*
X0385419Y0039280D01*
X0385433Y0039196D01*
X0385443Y0039113D01*
X0385449Y0039028D01*
X0385451Y0038944D01*
X0385449Y0038860D01*
X0385443Y0038775D01*
X0385433Y0038692D01*
X0385419Y0038608D01*
X0385402Y0038526D01*
X0385380Y0038444D01*
X0385355Y0038364D01*
X0385326Y0038285D01*
X0385293Y0038207D01*
X0385257Y0038131D01*
X0385217Y0038056D01*
X0385173Y0037984D01*
X0385127Y0037913D01*
X0385077Y0037845D01*
X0385024Y0037780D01*
X0384968Y0037717D01*
X0384909Y0037656D01*
X0384847Y0037599D01*
X0384783Y0037544D01*
X0384716Y0037493D01*
X0384647Y0037444D01*
X0384575Y0037399D01*
X0384502Y0037358D01*
X0384427Y0037320D01*
X0384350Y0037285D01*
X0384271Y0037254D01*
X0384191Y0037227D01*
X0384110Y0037204D01*
X0384028Y0037184D01*
X0383945Y0037168D01*
X0383862Y0037156D01*
X0383777Y0037148D01*
X0383693Y0037144D01*
X0383609Y0037144D01*
X0383525Y0037148D01*
X0383440Y0037156D01*
X0383357Y0037168D01*
X0383274Y0037184D01*
X0383192Y0037204D01*
X0383111Y0037227D01*
X0383031Y0037254D01*
X0382952Y0037285D01*
X0382875Y0037320D01*
X0382800Y0037358D01*
X0382727Y0037399D01*
X0382655Y0037444D01*
X0382586Y0037493D01*
X0382519Y0037544D01*
X0382455Y0037599D01*
X0382393Y0037656D01*
X0382334Y0037717D01*
X0382278Y0037780D01*
X0382225Y0037845D01*
X0382175Y0037913D01*
X0382129Y0037984D01*
X0382085Y0038056D01*
X0382045Y0038131D01*
X0382009Y0038207D01*
X0381976Y0038285D01*
X0381947Y0038364D01*
X0381922Y0038444D01*
X0381900Y0038526D01*
X0381883Y0038608D01*
X0381869Y0038692D01*
X0381859Y0038775D01*
X0381853Y0038860D01*
X0381851Y0038944D01*
D12*
X0381151Y0036344D02*
X0395751Y0036344D01*
X0395751Y0054344D01*
X0381151Y0054344D01*
X0381151Y0036344D01*
X0241940Y0037257D02*
X0223940Y0037257D01*
X0223940Y0051857D01*
X0241940Y0051857D01*
X0241940Y0037257D01*
M02*
