G75*
%MOIN*%
%OFA0B0*%
%FSLAX25Y25*%
%IPPOS*%
%LPD*%
%AMOC8*
5,1,8,0,0,1.08239X$1,22.5*
%
%ADD10C,0.02000*%
%ADD11C,0.00600*%
%ADD12C,0.00300*%
%ADD13C,0.00500*%
%ADD14C,0.00900*%
%ADD15C,0.00400*%
%ADD16C,0.01200*%
D10*
X0074770Y0079793D02*
X0099770Y0079793D01*
D11*
X0097270Y0032293D02*
X0094770Y0029793D01*
X0079770Y0029793D01*
X0077270Y0032293D01*
D12*
X0079594Y0024474D02*
X0080128Y0023941D01*
X0081729Y0023941D01*
X0081729Y0027143D01*
X0081729Y0026076D02*
X0080128Y0026076D01*
X0079594Y0025542D01*
X0079594Y0024474D01*
X0080662Y0026076D02*
X0079594Y0027143D01*
X0082817Y0027143D02*
X0084952Y0027143D01*
X0084952Y0023941D01*
X0082817Y0023941D01*
X0083885Y0025542D02*
X0084952Y0025542D01*
X0086040Y0027143D02*
X0086040Y0023941D01*
X0088175Y0023941D02*
X0088175Y0027143D01*
X0087107Y0026076D01*
X0086040Y0027143D01*
X0089262Y0026610D02*
X0089262Y0024474D01*
X0089796Y0023941D01*
X0090864Y0023941D01*
X0091398Y0024474D01*
X0091398Y0026610D01*
X0090864Y0027143D01*
X0089796Y0027143D01*
X0089262Y0026610D01*
X0092485Y0025542D02*
X0093019Y0026076D01*
X0094620Y0026076D01*
X0094620Y0027143D02*
X0094620Y0023941D01*
X0093019Y0023941D01*
X0092485Y0024474D01*
X0092485Y0025542D01*
D13*
X0097830Y0043582D02*
X0098664Y0043582D01*
X0099081Y0043999D01*
X0099081Y0044834D01*
X0098247Y0044834D01*
X0099081Y0045668D02*
X0098664Y0046085D01*
X0097830Y0046085D01*
X0097413Y0045668D01*
X0097413Y0043999D01*
X0097830Y0043582D01*
X0100175Y0043582D02*
X0100175Y0046085D01*
X0101843Y0043582D01*
X0101843Y0046085D01*
X0102938Y0046085D02*
X0104189Y0046085D01*
X0104606Y0045668D01*
X0104606Y0043999D01*
X0104189Y0043582D01*
X0102938Y0043582D01*
X0102938Y0046085D01*
X0103045Y0053510D02*
X0104296Y0053510D01*
X0104713Y0053927D01*
X0104713Y0055595D01*
X0104296Y0056012D01*
X0103045Y0056012D01*
X0103045Y0053510D01*
X0101951Y0053510D02*
X0101951Y0056012D01*
X0100283Y0056012D02*
X0101951Y0053510D01*
X0100283Y0053510D02*
X0100283Y0056012D01*
X0099188Y0055595D02*
X0098771Y0056012D01*
X0097937Y0056012D01*
X0097520Y0055595D01*
X0097520Y0053927D01*
X0097937Y0053510D01*
X0098771Y0053510D01*
X0099188Y0053927D01*
X0099188Y0054761D01*
X0098354Y0054761D01*
X0098045Y0063437D02*
X0098879Y0063437D01*
X0099296Y0063854D01*
X0099296Y0064688D01*
X0098462Y0064688D01*
X0099296Y0065522D02*
X0098879Y0065939D01*
X0098045Y0065939D01*
X0097628Y0065522D01*
X0097628Y0063854D01*
X0098045Y0063437D01*
X0100390Y0063437D02*
X0100390Y0065939D01*
X0102058Y0063437D01*
X0102058Y0065939D01*
X0103152Y0065939D02*
X0104404Y0065939D01*
X0104821Y0065522D01*
X0104821Y0063854D01*
X0104404Y0063437D01*
X0103152Y0063437D01*
X0103152Y0065939D01*
D14*
X0101123Y0074796D02*
X0097720Y0074796D01*
X0099613Y0035234D02*
X0099613Y0031831D01*
X0097912Y0033533D02*
X0101315Y0033533D01*
D15*
X0076570Y0034083D02*
X0076570Y0036818D01*
X0076570Y0038226D02*
X0072467Y0038226D01*
X0072467Y0040278D01*
X0073151Y0040962D01*
X0075886Y0040962D01*
X0076570Y0040278D01*
X0076570Y0038226D01*
X0072467Y0036818D02*
X0072467Y0034083D01*
X0076570Y0034083D01*
X0076570Y0032675D02*
X0075203Y0031307D01*
X0075203Y0031991D02*
X0075203Y0029939D01*
X0076570Y0029939D02*
X0072467Y0029939D01*
X0072467Y0031991D01*
X0073151Y0032675D01*
X0074519Y0032675D01*
X0075203Y0031991D01*
X0074519Y0034083D02*
X0074519Y0035450D01*
X0073835Y0046513D02*
X0074519Y0047197D01*
X0074519Y0048565D01*
X0075203Y0049249D01*
X0075886Y0049249D01*
X0076570Y0048565D01*
X0076570Y0047197D01*
X0075886Y0046513D01*
X0073835Y0046513D02*
X0073151Y0046513D01*
X0072467Y0047197D01*
X0072467Y0048565D01*
X0073151Y0049249D01*
X0072467Y0050657D02*
X0072467Y0053392D01*
X0072467Y0052025D02*
X0076570Y0052025D01*
X0076570Y0054800D02*
X0072467Y0054800D01*
X0072467Y0056852D01*
X0073151Y0057536D01*
X0074519Y0057536D01*
X0075203Y0056852D01*
X0075203Y0054800D01*
X0075203Y0056168D02*
X0076570Y0057536D01*
X0076570Y0058944D02*
X0076570Y0060312D01*
X0076570Y0059628D02*
X0072467Y0059628D01*
X0072467Y0058944D02*
X0072467Y0060312D01*
X0072467Y0061706D02*
X0072467Y0063758D01*
X0073151Y0064442D01*
X0074519Y0064442D01*
X0075203Y0063758D01*
X0075203Y0061706D01*
X0076570Y0061706D02*
X0072467Y0061706D01*
X0072467Y0065850D02*
X0076570Y0065850D01*
X0076570Y0068585D01*
X0074519Y0067218D02*
X0074519Y0065850D01*
X0072467Y0065850D02*
X0072467Y0068585D01*
D16*
X0074770Y0072293D02*
X0074770Y0077293D01*
X0072270Y0074793D01*
X0074770Y0077293D02*
X0077270Y0074793D01*
M02*
