%
M48
M72
T01C0.02000
T02C0.04000
T03C0.09055
%
T01
X215992Y51792
X221592Y54992
X231192Y50192
X234392Y42192
X231992Y28592
X293592Y36592
X332792Y54992
X385592Y44592
T02
X92270Y44793
X82270Y44793
X82270Y34793
X92270Y34793
X92270Y54793
X82270Y54793
X82270Y64793
X92270Y64793
X92270Y74793
X82270Y74793
T03
X118766Y25266
X162467Y25266
X207743Y24872
X252625Y24872
X299475Y24872
X345144Y25266
X390420Y24872
X433333Y24872
X453806Y68179
X432546Y76841
X410892Y68179
X389633Y76841
X365617Y68573
X344357Y77234
X319948Y68179
X298688Y76841
X273097Y68179
X251837Y76841
X228215Y68179
X206955Y76841
X182940Y68573
X161680Y77234
X139239Y68573
X117979Y77234
M30
