G75*
%MOIN*%
%OFA0B0*%
%FSLAX25Y25*%
%IPPOS*%
%LPD*%
%AMOC8*
5,1,8,0,0,1.08239X$1,22.5*
%
%ADD10R,0.11811X0.05512*%
%ADD11R,0.07087X0.06299*%
%ADD12R,0.05512X0.05512*%
%ADD13R,0.06299X0.07087*%
%ADD14OC8,0.07400*%
%ADD15R,0.01200X0.03900*%
%ADD16OC8,0.13055*%
%ADD17R,0.03900X0.01200*%
%ADD18C,0.00800*%
%ADD19C,0.04000*%
%ADD20C,0.01600*%
D10*
X0138963Y0045108D03*
X0157861Y0045108D03*
X0129711Y0055817D03*
X0110814Y0055817D03*
D11*
X0176995Y0052746D03*
X0208885Y0050148D03*
X0176995Y0041722D03*
X0208885Y0061171D03*
X0260459Y0064242D03*
X0298648Y0061722D03*
X0260459Y0053219D03*
X0298648Y0050699D03*
X0312900Y0032825D03*
X0322428Y0032785D03*
X0322428Y0021762D03*
X0312900Y0021801D03*
X0415971Y0032510D03*
X0415971Y0043533D03*
D12*
X0166562Y0062116D03*
X0151601Y0062116D03*
X0147664Y0023927D03*
X0132703Y0023927D03*
D13*
X0204987Y0038652D03*
X0216010Y0038652D03*
X0222703Y0022156D03*
X0233727Y0022156D03*
X0273491Y0045738D03*
X0284514Y0045738D03*
X0338451Y0060699D03*
X0349475Y0060699D03*
X0382703Y0061919D03*
X0393727Y0061919D03*
X0426325Y0061526D03*
X0437349Y0061526D03*
D14*
X0092270Y0064793D03*
X0082270Y0064793D03*
X0082270Y0054793D03*
X0092270Y0054793D03*
X0092270Y0044793D03*
X0082270Y0044793D03*
X0082270Y0034793D03*
X0092270Y0034793D03*
X0092270Y0074793D03*
X0082270Y0074793D03*
D15*
X0225440Y0055257D03*
X0227940Y0055257D03*
X0230440Y0055257D03*
X0232940Y0055257D03*
X0235440Y0055257D03*
X0237940Y0055257D03*
X0240440Y0055257D03*
X0240440Y0033857D03*
X0237940Y0033857D03*
X0235440Y0033857D03*
X0232940Y0033857D03*
X0230440Y0033857D03*
X0227940Y0033857D03*
X0225440Y0033857D03*
D16*
X0207743Y0024872D03*
X0162467Y0025266D03*
X0118766Y0025266D03*
X0252625Y0024872D03*
X0299475Y0024872D03*
X0345144Y0025266D03*
X0390420Y0024872D03*
X0433333Y0024872D03*
X0453806Y0068179D03*
X0432546Y0076841D03*
X0410892Y0068179D03*
X0389633Y0076841D03*
X0365617Y0068573D03*
X0344357Y0077234D03*
X0319948Y0068179D03*
X0298688Y0076841D03*
X0273097Y0068179D03*
X0251837Y0076841D03*
X0228215Y0068179D03*
X0206955Y0076841D03*
X0182940Y0068573D03*
X0161680Y0077234D03*
X0139239Y0068573D03*
X0117979Y0077234D03*
D17*
X0377751Y0052844D03*
X0377751Y0050344D03*
X0377751Y0047844D03*
X0377751Y0045344D03*
X0377751Y0042844D03*
X0377751Y0040344D03*
X0377751Y0037844D03*
X0399151Y0037844D03*
X0399151Y0040344D03*
X0399151Y0042844D03*
X0399151Y0045344D03*
X0399151Y0047844D03*
X0399151Y0050344D03*
X0399151Y0052844D03*
D18*
X0399192Y0053392D01*
X0417592Y0053392D01*
X0425592Y0061392D01*
X0426325Y0061526D01*
X0436792Y0062192D02*
X0437349Y0061526D01*
X0436792Y0062192D02*
X0436792Y0072592D01*
X0432792Y0076592D01*
X0432546Y0076841D01*
X0393592Y0073392D02*
X0390392Y0076592D01*
X0389633Y0076841D01*
X0393592Y0073392D02*
X0393592Y0062192D01*
X0393727Y0061919D01*
X0382703Y0061919D02*
X0382392Y0061392D01*
X0378392Y0057392D01*
X0378392Y0053392D01*
X0377751Y0052844D01*
X0377592Y0052592D01*
X0377592Y0050192D01*
X0377751Y0050344D01*
X0377751Y0047844D02*
X0378392Y0047792D01*
X0398392Y0047792D01*
X0399151Y0047844D01*
X0399192Y0050192D02*
X0399151Y0050344D01*
X0399192Y0050192D02*
X0399192Y0052592D01*
X0399151Y0052844D01*
X0377751Y0047844D02*
X0377592Y0047792D01*
X0375192Y0047792D01*
X0374392Y0046992D01*
X0354392Y0046992D01*
X0344792Y0056592D01*
X0344792Y0076592D01*
X0344357Y0077234D01*
X0365617Y0068573D02*
X0365592Y0067792D01*
X0359192Y0061392D01*
X0349592Y0061392D01*
X0349475Y0060699D01*
X0338451Y0060699D02*
X0338392Y0060592D01*
X0332792Y0054992D01*
X0308792Y0040592D02*
X0299192Y0050192D01*
X0298648Y0050699D01*
X0284792Y0045392D02*
X0284514Y0045738D01*
X0284792Y0045392D02*
X0293592Y0036592D01*
X0287992Y0033392D02*
X0303192Y0033392D01*
X0308792Y0027792D01*
X0317592Y0027792D01*
X0322392Y0032592D01*
X0322428Y0032785D01*
X0323192Y0033392D01*
X0379992Y0033392D01*
X0383192Y0036592D01*
X0383192Y0042192D01*
X0379992Y0045392D01*
X0378392Y0045392D01*
X0377751Y0045344D01*
X0375192Y0042992D02*
X0374392Y0043792D01*
X0374392Y0046992D01*
X0375192Y0042992D02*
X0377592Y0042992D01*
X0377751Y0042844D01*
X0378392Y0042992D01*
X0379992Y0042992D01*
X0381592Y0041392D01*
X0381592Y0037392D01*
X0379992Y0035792D01*
X0375192Y0035792D01*
X0373592Y0037392D01*
X0317592Y0037392D01*
X0313592Y0033392D01*
X0312900Y0032825D01*
X0287992Y0033392D02*
X0275992Y0045392D01*
X0273592Y0045392D01*
X0273491Y0045738D01*
X0272792Y0046192D01*
X0272792Y0049392D01*
X0263992Y0058192D01*
X0257592Y0058192D01*
X0255192Y0060592D01*
X0235992Y0060592D01*
X0232792Y0057392D01*
X0231192Y0058992D01*
X0220792Y0058992D01*
X0218392Y0056592D01*
X0200792Y0056592D01*
X0191992Y0047792D01*
X0172792Y0047792D01*
X0167992Y0052592D01*
X0167992Y0055792D01*
X0130392Y0055792D01*
X0129711Y0055817D01*
X0122392Y0054992D02*
X0122392Y0052592D01*
X0125592Y0049392D01*
X0153592Y0049392D01*
X0157592Y0045392D01*
X0157861Y0045108D01*
X0158392Y0044592D01*
X0165592Y0044592D01*
X0173592Y0036592D01*
X0194392Y0036592D01*
X0201592Y0043792D01*
X0211192Y0043792D01*
X0215992Y0038992D01*
X0216010Y0038652D01*
X0216792Y0038192D01*
X0224792Y0030192D01*
X0230392Y0030192D01*
X0231992Y0028592D01*
X0231192Y0030192D02*
X0230392Y0030192D01*
X0231192Y0030192D02*
X0232792Y0031792D01*
X0232792Y0033392D01*
X0232940Y0033857D01*
X0235192Y0034192D02*
X0235440Y0033857D01*
X0235192Y0033392D01*
X0235192Y0022992D01*
X0234392Y0022192D01*
X0233727Y0022156D01*
X0222703Y0022156D02*
X0222392Y0022192D01*
X0210392Y0022192D01*
X0207992Y0024592D01*
X0207743Y0024872D01*
X0205592Y0026992D01*
X0164792Y0026992D01*
X0163192Y0025392D01*
X0162467Y0025266D01*
X0162392Y0025392D01*
X0158392Y0025392D01*
X0139192Y0044592D01*
X0138963Y0045108D01*
X0138392Y0045392D01*
X0121592Y0045392D01*
X0111192Y0055792D01*
X0110814Y0055817D01*
X0110392Y0055792D01*
X0093592Y0055792D01*
X0092792Y0054992D01*
X0092270Y0054793D01*
X0089592Y0059792D02*
X0087192Y0057392D01*
X0087192Y0042192D01*
X0089592Y0039792D01*
X0124792Y0039792D01*
X0139992Y0024592D01*
X0147192Y0024592D01*
X0147664Y0023927D01*
X0132703Y0023927D02*
X0131992Y0024592D01*
X0130392Y0024592D01*
X0120792Y0034192D01*
X0092792Y0034192D01*
X0092270Y0034793D01*
X0117592Y0059792D02*
X0122392Y0054992D01*
X0117592Y0059792D02*
X0089592Y0059792D01*
X0097592Y0069392D02*
X0092792Y0074192D01*
X0092270Y0074793D01*
X0097592Y0069392D02*
X0127192Y0069392D01*
X0139192Y0057392D01*
X0154392Y0057392D01*
X0158392Y0061392D01*
X0166392Y0061392D01*
X0166562Y0062116D01*
X0171192Y0058992D02*
X0171192Y0065392D01*
X0170392Y0066192D01*
X0160792Y0066192D01*
X0156792Y0062192D01*
X0151992Y0062192D01*
X0151601Y0062116D01*
X0167992Y0055792D02*
X0171192Y0058992D01*
X0176792Y0062192D02*
X0162392Y0076592D01*
X0161680Y0077234D01*
X0206955Y0076841D02*
X0207192Y0076592D01*
X0208792Y0074992D01*
X0208792Y0061392D01*
X0208885Y0061171D01*
X0225440Y0055257D02*
X0225592Y0054992D01*
X0221592Y0054992D01*
X0201592Y0054992D01*
X0188792Y0042192D01*
X0177592Y0042192D01*
X0176995Y0041722D01*
X0204987Y0038652D02*
X0205592Y0038192D01*
X0205592Y0026992D01*
X0207192Y0025392D01*
X0207743Y0024872D01*
X0225440Y0033857D02*
X0225592Y0034192D01*
X0227992Y0034192D01*
X0227940Y0033857D01*
X0227992Y0034192D02*
X0227992Y0035792D01*
X0234392Y0042192D01*
X0233592Y0045392D02*
X0213592Y0045392D01*
X0209592Y0049392D01*
X0208885Y0050148D01*
X0215992Y0051792D02*
X0227992Y0051792D01*
X0227992Y0054992D01*
X0227940Y0055257D01*
X0230392Y0054992D02*
X0230440Y0055257D01*
X0230392Y0054992D02*
X0230392Y0050992D01*
X0231192Y0050192D01*
X0232792Y0046992D02*
X0235192Y0049392D01*
X0235192Y0054992D01*
X0235440Y0055257D01*
X0235992Y0055792D01*
X0235992Y0058192D01*
X0236792Y0058992D01*
X0241592Y0058992D01*
X0242392Y0058192D01*
X0242392Y0045392D01*
X0234392Y0037392D01*
X0235192Y0036592D01*
X0235192Y0034192D01*
X0237940Y0033857D02*
X0238392Y0034192D01*
X0239992Y0034192D01*
X0240440Y0033857D01*
X0240792Y0034192D01*
X0259992Y0053392D01*
X0260459Y0053219D01*
X0240440Y0055257D02*
X0239992Y0055792D01*
X0238392Y0055792D01*
X0237940Y0055257D01*
X0237592Y0054992D01*
X0237592Y0049392D01*
X0233592Y0045392D01*
X0232792Y0046992D02*
X0229592Y0046992D01*
X0227992Y0048592D01*
X0227992Y0051792D01*
X0232940Y0055257D02*
X0232792Y0055792D01*
X0232792Y0057392D01*
X0259992Y0064592D02*
X0260459Y0064242D01*
X0259992Y0064592D02*
X0259992Y0068592D01*
X0251992Y0076592D01*
X0251837Y0076841D01*
X0298392Y0076592D02*
X0298688Y0076841D01*
X0298392Y0076592D02*
X0298392Y0062192D01*
X0298648Y0061722D01*
X0308792Y0040592D02*
X0377592Y0040592D01*
X0377751Y0040344D01*
X0377592Y0039792D01*
X0377592Y0038192D01*
X0377751Y0037844D01*
X0385592Y0044592D02*
X0386392Y0045392D01*
X0398392Y0045392D01*
X0399151Y0045344D01*
X0399192Y0045392D01*
X0413592Y0045392D01*
X0415192Y0043792D01*
X0415971Y0043533D01*
X0399192Y0042992D02*
X0399192Y0040592D01*
X0399151Y0040344D01*
X0399192Y0039792D01*
X0399192Y0038192D01*
X0399151Y0037844D01*
X0398392Y0037392D01*
X0398392Y0032592D01*
X0415192Y0032592D01*
X0415971Y0032510D01*
X0415992Y0031792D01*
X0422392Y0025392D01*
X0432792Y0025392D01*
X0433333Y0024872D01*
X0398392Y0032592D02*
X0391192Y0025392D01*
X0390420Y0024872D01*
X0345144Y0025266D02*
X0344792Y0024592D01*
X0325592Y0024592D01*
X0323192Y0022192D01*
X0322428Y0021762D01*
X0322392Y0022192D01*
X0313592Y0022192D01*
X0312900Y0021801D01*
X0312792Y0022192D01*
X0302392Y0022192D01*
X0299992Y0024592D01*
X0299475Y0024872D01*
X0234392Y0037392D02*
X0231992Y0037392D01*
X0230392Y0035792D01*
X0230392Y0034192D01*
X0230440Y0033857D01*
X0176995Y0052746D02*
X0176792Y0053392D01*
X0176792Y0062192D01*
X0399151Y0042844D02*
X0399192Y0042992D01*
D19*
X0385592Y0044592D03*
X0332792Y0054992D03*
X0293592Y0036592D03*
X0234392Y0042192D03*
X0231192Y0050192D03*
X0221592Y0054992D03*
X0215992Y0051792D03*
X0231992Y0028592D03*
D20*
X0068782Y0018989D02*
X0068407Y0084100D01*
X0113396Y0084145D01*
X0109851Y0080601D01*
X0109851Y0073868D01*
X0112327Y0071392D01*
X0098420Y0071392D01*
X0097392Y0072420D01*
X0097570Y0072598D01*
X0097570Y0076989D01*
X0094466Y0080093D01*
X0090075Y0080093D01*
X0087270Y0077289D01*
X0084466Y0080093D01*
X0080075Y0080093D01*
X0076970Y0076989D01*
X0076970Y0072598D01*
X0079775Y0069793D01*
X0076970Y0066989D01*
X0076970Y0062598D01*
X0079775Y0059793D01*
X0076970Y0056989D01*
X0076970Y0052598D01*
X0079775Y0049793D01*
X0076970Y0046989D01*
X0076970Y0042598D01*
X0079775Y0039793D01*
X0076970Y0036989D01*
X0076970Y0032598D01*
X0080075Y0029493D01*
X0084466Y0029493D01*
X0087270Y0032298D01*
X0090075Y0029493D01*
X0094466Y0029493D01*
X0097164Y0032192D01*
X0114198Y0032192D01*
X0110639Y0028632D01*
X0110639Y0021899D01*
X0113639Y0018899D01*
X0068782Y0018989D01*
X0068782Y0018990D02*
X0113548Y0018990D01*
X0111949Y0020589D02*
X0068773Y0020589D01*
X0068764Y0022187D02*
X0110639Y0022187D01*
X0110639Y0023786D02*
X0068755Y0023786D01*
X0068746Y0025384D02*
X0110639Y0025384D01*
X0110639Y0026983D02*
X0068736Y0026983D01*
X0068727Y0028581D02*
X0110639Y0028581D01*
X0112186Y0030180D02*
X0095152Y0030180D01*
X0096751Y0031778D02*
X0113785Y0031778D01*
X0124435Y0033377D02*
X0128378Y0033377D01*
X0129977Y0031778D02*
X0126033Y0031778D01*
X0127632Y0030180D02*
X0131575Y0030180D01*
X0133174Y0028581D02*
X0129230Y0028581D01*
X0129529Y0028283D02*
X0122792Y0035020D01*
X0121620Y0036192D01*
X0097570Y0036192D01*
X0097570Y0036989D01*
X0096767Y0037792D01*
X0123963Y0037792D01*
X0133472Y0028283D01*
X0129529Y0028283D01*
X0135633Y0031778D02*
X0149177Y0031778D01*
X0150775Y0030180D02*
X0137232Y0030180D01*
X0138830Y0028581D02*
X0152374Y0028581D01*
X0152020Y0027346D02*
X0151083Y0028283D01*
X0144245Y0028283D01*
X0143308Y0027346D01*
X0143308Y0026592D01*
X0140820Y0026592D01*
X0126792Y0040620D01*
X0125620Y0041792D01*
X0096764Y0041792D01*
X0097570Y0042598D01*
X0097570Y0046989D01*
X0094766Y0049793D01*
X0097570Y0052598D01*
X0097570Y0053792D01*
X0103308Y0053792D01*
X0103308Y0052398D01*
X0104245Y0051461D01*
X0112694Y0051461D01*
X0120763Y0043392D01*
X0131458Y0043392D01*
X0131458Y0041690D01*
X0132395Y0040752D01*
X0140203Y0040752D01*
X0154340Y0026615D01*
X0154340Y0021899D01*
X0157427Y0018812D01*
X0123873Y0018879D01*
X0126894Y0021899D01*
X0126894Y0025261D01*
X0128348Y0023807D01*
X0128348Y0020509D01*
X0129285Y0019571D01*
X0136122Y0019571D01*
X0137059Y0020509D01*
X0137059Y0024696D01*
X0139163Y0022592D01*
X0143308Y0022592D01*
X0143308Y0020509D01*
X0144245Y0019571D01*
X0151083Y0019571D01*
X0152020Y0020509D01*
X0152020Y0027346D01*
X0152020Y0026983D02*
X0153972Y0026983D01*
X0154340Y0025384D02*
X0152020Y0025384D01*
X0152020Y0023786D02*
X0154340Y0023786D01*
X0154340Y0022187D02*
X0152020Y0022187D01*
X0152020Y0020589D02*
X0155650Y0020589D01*
X0157249Y0018990D02*
X0123985Y0018990D01*
X0125583Y0020589D02*
X0128348Y0020589D01*
X0128348Y0022187D02*
X0126894Y0022187D01*
X0126894Y0023786D02*
X0128348Y0023786D01*
X0137059Y0023786D02*
X0137969Y0023786D01*
X0137059Y0022187D02*
X0143308Y0022187D01*
X0143308Y0020589D02*
X0137059Y0020589D01*
X0140429Y0026983D02*
X0143308Y0026983D01*
X0154833Y0031778D02*
X0157486Y0031778D01*
X0156160Y0030452D02*
X0145695Y0040916D01*
X0146469Y0041690D01*
X0146469Y0047392D01*
X0150355Y0047392D01*
X0150355Y0041690D01*
X0151293Y0040752D01*
X0164429Y0040752D01*
X0165366Y0041690D01*
X0165366Y0041989D01*
X0171592Y0035763D01*
X0172763Y0034592D01*
X0195220Y0034592D01*
X0200237Y0039609D01*
X0200237Y0034446D01*
X0201175Y0033508D01*
X0203592Y0033508D01*
X0203592Y0032215D01*
X0200368Y0028992D01*
X0170235Y0028992D01*
X0165834Y0033393D01*
X0159101Y0033393D01*
X0156160Y0030452D01*
X0159084Y0033377D02*
X0153235Y0033377D01*
X0151636Y0034975D02*
X0172380Y0034975D01*
X0170781Y0036574D02*
X0150038Y0036574D01*
X0148439Y0038172D02*
X0169183Y0038172D01*
X0167584Y0039771D02*
X0146841Y0039771D01*
X0142783Y0038172D02*
X0129239Y0038172D01*
X0130838Y0036574D02*
X0144381Y0036574D01*
X0145980Y0034975D02*
X0132436Y0034975D01*
X0126780Y0034975D02*
X0122836Y0034975D01*
X0125181Y0036574D02*
X0097570Y0036574D01*
X0088268Y0038287D02*
X0087270Y0037289D01*
X0084766Y0039793D01*
X0085764Y0040791D01*
X0086363Y0040192D01*
X0088268Y0038287D01*
X0088154Y0038172D02*
X0086387Y0038172D01*
X0086784Y0039771D02*
X0084788Y0039771D01*
X0079753Y0039771D02*
X0068663Y0039771D01*
X0068672Y0038172D02*
X0078154Y0038172D01*
X0076970Y0036574D02*
X0068681Y0036574D01*
X0068690Y0034975D02*
X0076970Y0034975D01*
X0076970Y0033377D02*
X0068699Y0033377D01*
X0068709Y0031778D02*
X0077790Y0031778D01*
X0079388Y0030180D02*
X0068718Y0030180D01*
X0085152Y0030180D02*
X0089388Y0030180D01*
X0087790Y0031778D02*
X0086751Y0031778D01*
X0078199Y0041369D02*
X0068653Y0041369D01*
X0068644Y0042968D02*
X0076970Y0042968D01*
X0076970Y0044566D02*
X0068635Y0044566D01*
X0068626Y0046165D02*
X0076970Y0046165D01*
X0077745Y0047763D02*
X0068617Y0047763D01*
X0068607Y0049362D02*
X0079344Y0049362D01*
X0078608Y0050960D02*
X0068598Y0050960D01*
X0068589Y0052559D02*
X0077009Y0052559D01*
X0076970Y0054157D02*
X0068580Y0054157D01*
X0068570Y0055756D02*
X0076970Y0055756D01*
X0077336Y0057355D02*
X0068561Y0057355D01*
X0068552Y0058953D02*
X0078935Y0058953D01*
X0084766Y0059793D02*
X0085765Y0058794D01*
X0087592Y0060620D01*
X0088270Y0061298D01*
X0087270Y0062298D01*
X0084766Y0059793D01*
X0085524Y0060552D02*
X0087523Y0060552D01*
X0087418Y0062150D02*
X0087122Y0062150D01*
X0079017Y0060552D02*
X0068543Y0060552D01*
X0068534Y0062150D02*
X0077418Y0062150D01*
X0076970Y0063749D02*
X0068524Y0063749D01*
X0068515Y0065347D02*
X0076970Y0065347D01*
X0076970Y0066946D02*
X0068506Y0066946D01*
X0068497Y0068544D02*
X0078526Y0068544D01*
X0079426Y0070143D02*
X0068488Y0070143D01*
X0068478Y0071741D02*
X0077827Y0071741D01*
X0076970Y0073340D02*
X0068469Y0073340D01*
X0068460Y0074938D02*
X0076970Y0074938D01*
X0076970Y0076537D02*
X0068451Y0076537D01*
X0068441Y0078135D02*
X0078117Y0078135D01*
X0079715Y0079734D02*
X0068432Y0079734D01*
X0068423Y0081332D02*
X0110583Y0081332D01*
X0109851Y0079734D02*
X0094825Y0079734D01*
X0089715Y0079734D02*
X0084825Y0079734D01*
X0086424Y0078135D02*
X0088117Y0078135D01*
X0096424Y0078135D02*
X0109851Y0078135D01*
X0109851Y0076537D02*
X0097570Y0076537D01*
X0097570Y0074938D02*
X0109851Y0074938D01*
X0110380Y0073340D02*
X0097570Y0073340D01*
X0098071Y0071741D02*
X0111978Y0071741D01*
X0123631Y0071392D02*
X0126107Y0073868D01*
X0126107Y0080601D01*
X0122553Y0084154D01*
X0157140Y0084189D01*
X0153552Y0080601D01*
X0153552Y0073868D01*
X0158313Y0069107D01*
X0165046Y0069107D01*
X0166047Y0070108D01*
X0167963Y0068192D01*
X0159963Y0068192D01*
X0158792Y0067020D01*
X0155963Y0064192D01*
X0155957Y0064192D01*
X0155957Y0065535D01*
X0155020Y0066472D01*
X0148182Y0066472D01*
X0147366Y0065656D01*
X0147366Y0071939D01*
X0142605Y0076700D01*
X0135872Y0076700D01*
X0131111Y0071939D01*
X0131111Y0068300D01*
X0129192Y0070220D01*
X0128020Y0071392D01*
X0123631Y0071392D01*
X0123980Y0071741D02*
X0131111Y0071741D01*
X0131111Y0070143D02*
X0129269Y0070143D01*
X0130868Y0068544D02*
X0131111Y0068544D01*
X0126809Y0066946D02*
X0097570Y0066946D01*
X0097570Y0066989D02*
X0097167Y0067392D01*
X0126363Y0067392D01*
X0133582Y0060173D01*
X0123143Y0060173D01*
X0122206Y0059236D01*
X0122206Y0058006D01*
X0118420Y0061792D01*
X0096764Y0061792D01*
X0097570Y0062598D01*
X0097570Y0066989D01*
X0097570Y0065347D02*
X0128408Y0065347D01*
X0130006Y0063749D02*
X0097570Y0063749D01*
X0097122Y0062150D02*
X0131605Y0062150D01*
X0133203Y0060552D02*
X0119660Y0060552D01*
X0121259Y0058953D02*
X0122206Y0058953D01*
X0118799Y0055756D02*
X0118319Y0055756D01*
X0118319Y0056236D02*
X0120392Y0054163D01*
X0120392Y0051763D01*
X0123592Y0048563D01*
X0124763Y0047392D01*
X0131458Y0047392D01*
X0131458Y0047392D01*
X0122420Y0047392D01*
X0117866Y0051945D01*
X0118319Y0052398D01*
X0118319Y0056236D01*
X0118319Y0054157D02*
X0120392Y0054157D01*
X0120392Y0052559D02*
X0118319Y0052559D01*
X0118851Y0050960D02*
X0121194Y0050960D01*
X0120450Y0049362D02*
X0122793Y0049362D01*
X0122048Y0047763D02*
X0124391Y0047763D01*
X0116391Y0047763D02*
X0096796Y0047763D01*
X0095197Y0049362D02*
X0114793Y0049362D01*
X0113194Y0050960D02*
X0095933Y0050960D01*
X0097531Y0052559D02*
X0103308Y0052559D01*
X0089775Y0049793D02*
X0089192Y0050377D01*
X0089192Y0049210D01*
X0089775Y0049793D01*
X0089344Y0049362D02*
X0089192Y0049362D01*
X0085192Y0049367D02*
X0085192Y0050219D01*
X0084766Y0049793D01*
X0085192Y0049367D01*
X0097570Y0046165D02*
X0117990Y0046165D01*
X0119588Y0044566D02*
X0097570Y0044566D01*
X0097570Y0042968D02*
X0131458Y0042968D01*
X0131778Y0041369D02*
X0126042Y0041369D01*
X0127641Y0039771D02*
X0141184Y0039771D01*
X0146149Y0041369D02*
X0150676Y0041369D01*
X0150355Y0042968D02*
X0146469Y0042968D01*
X0146469Y0044566D02*
X0150355Y0044566D01*
X0150355Y0046165D02*
X0146469Y0046165D01*
X0154420Y0051392D02*
X0156348Y0049464D01*
X0164429Y0049464D01*
X0165366Y0048527D01*
X0165366Y0046592D01*
X0166420Y0046592D01*
X0171851Y0041160D01*
X0171851Y0045535D01*
X0172108Y0045792D01*
X0171963Y0045792D01*
X0170792Y0046963D01*
X0165992Y0051763D01*
X0165992Y0053792D01*
X0137217Y0053792D01*
X0137217Y0052398D01*
X0136280Y0051461D01*
X0126351Y0051461D01*
X0126420Y0051392D01*
X0154420Y0051392D01*
X0154851Y0050960D02*
X0166794Y0050960D01*
X0165992Y0052559D02*
X0137217Y0052559D01*
X0157620Y0057792D02*
X0159220Y0059392D01*
X0162206Y0059392D01*
X0162206Y0058697D01*
X0163112Y0057792D01*
X0157620Y0057792D01*
X0158781Y0058953D02*
X0162206Y0058953D01*
X0169992Y0054963D02*
X0173192Y0058163D01*
X0173192Y0062963D01*
X0174792Y0061363D01*
X0174792Y0057496D01*
X0172789Y0057496D01*
X0171851Y0056558D01*
X0171851Y0051560D01*
X0169992Y0053420D01*
X0169992Y0054963D01*
X0169992Y0054157D02*
X0171851Y0054157D01*
X0171851Y0055756D02*
X0170784Y0055756D01*
X0172383Y0057355D02*
X0172648Y0057355D01*
X0173192Y0058953D02*
X0174792Y0058953D01*
X0178792Y0058953D02*
X0203741Y0058953D01*
X0203741Y0058592D02*
X0199963Y0058592D01*
X0198792Y0057420D01*
X0191163Y0049792D01*
X0182138Y0049792D01*
X0182138Y0056558D01*
X0181201Y0057496D01*
X0178792Y0057496D01*
X0178792Y0061227D01*
X0179573Y0060445D01*
X0186306Y0060445D01*
X0191067Y0065206D01*
X0191067Y0071939D01*
X0186306Y0076700D01*
X0179573Y0076700D01*
X0174812Y0071939D01*
X0174812Y0067000D01*
X0168876Y0072936D01*
X0169807Y0073868D01*
X0169807Y0080601D01*
X0166210Y0084198D01*
X0202855Y0084234D01*
X0198828Y0080207D01*
X0198828Y0073474D01*
X0203589Y0068713D01*
X0206792Y0068713D01*
X0206792Y0065921D01*
X0204678Y0065921D01*
X0203741Y0064984D01*
X0203741Y0058592D01*
X0198726Y0057355D02*
X0181342Y0057355D01*
X0182138Y0055756D02*
X0197127Y0055756D01*
X0195529Y0054157D02*
X0182138Y0054157D01*
X0182138Y0052559D02*
X0193930Y0052559D01*
X0192332Y0050960D02*
X0182138Y0050960D01*
X0171851Y0052559D02*
X0170853Y0052559D01*
X0168393Y0049362D02*
X0164531Y0049362D01*
X0165366Y0047763D02*
X0169991Y0047763D01*
X0171590Y0046165D02*
X0166847Y0046165D01*
X0168445Y0044566D02*
X0171851Y0044566D01*
X0171851Y0042968D02*
X0170044Y0042968D01*
X0171642Y0041369D02*
X0171851Y0041369D01*
X0165985Y0041369D02*
X0165046Y0041369D01*
X0182138Y0040192D02*
X0182138Y0038592D01*
X0193563Y0038592D01*
X0199592Y0044620D01*
X0200763Y0045792D01*
X0204285Y0045792D01*
X0203741Y0046335D01*
X0203741Y0052992D01*
X0202420Y0052992D01*
X0190792Y0041363D01*
X0189620Y0040192D01*
X0182138Y0040192D01*
X0182138Y0039771D02*
X0194742Y0039771D01*
X0198801Y0038172D02*
X0200237Y0038172D01*
X0200237Y0036574D02*
X0197202Y0036574D01*
X0195604Y0034975D02*
X0200237Y0034975D01*
X0207592Y0033508D02*
X0208799Y0033508D01*
X0209736Y0034446D01*
X0209736Y0041792D01*
X0210363Y0041792D01*
X0211261Y0040894D01*
X0211261Y0034446D01*
X0212198Y0033508D01*
X0218647Y0033508D01*
X0223963Y0028192D01*
X0228392Y0028192D01*
X0228392Y0027876D01*
X0228940Y0026552D01*
X0229054Y0026438D01*
X0228977Y0026362D01*
X0228977Y0018669D01*
X0227453Y0018672D01*
X0227453Y0026362D01*
X0226516Y0027299D01*
X0218891Y0027299D01*
X0217954Y0026362D01*
X0217954Y0024192D01*
X0215870Y0024192D01*
X0215870Y0028239D01*
X0211109Y0033000D01*
X0207592Y0033000D01*
X0207592Y0033508D01*
X0207592Y0033377D02*
X0218778Y0033377D01*
X0220377Y0031778D02*
X0212331Y0031778D01*
X0213929Y0030180D02*
X0221975Y0030180D01*
X0223574Y0028581D02*
X0215528Y0028581D01*
X0215870Y0026983D02*
X0218575Y0026983D01*
X0226832Y0026983D02*
X0228761Y0026983D01*
X0228977Y0025384D02*
X0227453Y0025384D01*
X0227453Y0023786D02*
X0228977Y0023786D01*
X0228977Y0022187D02*
X0227453Y0022187D01*
X0227453Y0020589D02*
X0228977Y0020589D01*
X0228977Y0018990D02*
X0227453Y0018990D01*
X0217954Y0018990D02*
X0213355Y0018990D01*
X0213065Y0018701D02*
X0214557Y0020192D01*
X0217954Y0020192D01*
X0217954Y0018691D01*
X0213065Y0018701D01*
X0202399Y0018722D02*
X0167487Y0018792D01*
X0170595Y0021899D01*
X0170595Y0024992D01*
X0199615Y0024992D01*
X0199615Y0021505D01*
X0202399Y0018722D01*
X0202130Y0018990D02*
X0167686Y0018990D01*
X0169284Y0020589D02*
X0200532Y0020589D01*
X0199615Y0022187D02*
X0170595Y0022187D01*
X0170595Y0023786D02*
X0199615Y0023786D01*
X0215870Y0025384D02*
X0217954Y0025384D01*
X0201556Y0030180D02*
X0169047Y0030180D01*
X0167449Y0031778D02*
X0203155Y0031778D01*
X0203592Y0033377D02*
X0165850Y0033377D01*
X0147578Y0033377D02*
X0134035Y0033377D01*
X0182138Y0044192D02*
X0182138Y0045535D01*
X0181881Y0045792D01*
X0189563Y0045792D01*
X0187963Y0044192D01*
X0182138Y0044192D01*
X0182138Y0044566D02*
X0188338Y0044566D01*
X0192396Y0042968D02*
X0197939Y0042968D01*
X0196341Y0041369D02*
X0190798Y0041369D01*
X0193995Y0044566D02*
X0199538Y0044566D01*
X0195593Y0046165D02*
X0203912Y0046165D01*
X0203741Y0047763D02*
X0197192Y0047763D01*
X0198790Y0049362D02*
X0203741Y0049362D01*
X0203741Y0050960D02*
X0200389Y0050960D01*
X0201987Y0052559D02*
X0203741Y0052559D01*
X0214028Y0048709D02*
X0214028Y0047784D01*
X0214420Y0047392D01*
X0226363Y0047392D01*
X0225992Y0047763D01*
X0225992Y0049792D01*
X0219060Y0049792D01*
X0219044Y0049752D01*
X0218031Y0048740D01*
X0216708Y0048192D01*
X0215276Y0048192D01*
X0214028Y0048709D01*
X0214048Y0047763D02*
X0225992Y0047763D01*
X0225992Y0049362D02*
X0218653Y0049362D01*
X0236318Y0045290D02*
X0239592Y0048563D01*
X0239592Y0051707D01*
X0240392Y0051707D01*
X0240392Y0046220D01*
X0237724Y0043553D01*
X0237444Y0044231D01*
X0236431Y0045244D01*
X0236318Y0045290D01*
X0237108Y0044566D02*
X0238738Y0044566D01*
X0237193Y0046165D02*
X0240336Y0046165D01*
X0244392Y0046165D02*
X0249936Y0046165D01*
X0248338Y0044566D02*
X0244392Y0044566D01*
X0244392Y0044563D02*
X0244392Y0058592D01*
X0254363Y0058592D01*
X0255592Y0057363D01*
X0255620Y0057335D01*
X0255316Y0057031D01*
X0255316Y0051545D01*
X0241179Y0037407D01*
X0239177Y0037407D01*
X0237235Y0037407D01*
X0244392Y0044563D01*
X0242796Y0042968D02*
X0246739Y0042968D01*
X0245141Y0041369D02*
X0241198Y0041369D01*
X0239599Y0039771D02*
X0243542Y0039771D01*
X0241944Y0038172D02*
X0238001Y0038172D01*
X0244404Y0034975D02*
X0283580Y0034975D01*
X0281981Y0036574D02*
X0246002Y0036574D01*
X0247601Y0038172D02*
X0280383Y0038172D01*
X0278784Y0039771D02*
X0249199Y0039771D01*
X0250798Y0041369D02*
X0268904Y0041369D01*
X0268741Y0041532D02*
X0269678Y0040595D01*
X0277303Y0040595D01*
X0277632Y0040923D01*
X0285992Y0032563D01*
X0287163Y0031392D01*
X0294501Y0031392D01*
X0291348Y0028239D01*
X0291348Y0021505D01*
X0294315Y0018538D01*
X0257858Y0018611D01*
X0260752Y0021505D01*
X0260752Y0028239D01*
X0255991Y0033000D01*
X0249258Y0033000D01*
X0244497Y0028239D01*
X0244497Y0021505D01*
X0247371Y0018632D01*
X0238477Y0018650D01*
X0238477Y0026362D01*
X0237539Y0027299D01*
X0237192Y0027299D01*
X0237192Y0030307D01*
X0241702Y0030307D01*
X0242640Y0031244D01*
X0242640Y0033189D01*
X0242770Y0033313D01*
X0242771Y0033343D01*
X0257897Y0048469D01*
X0264665Y0048469D01*
X0265603Y0049406D01*
X0265603Y0053752D01*
X0269076Y0050279D01*
X0268741Y0049944D01*
X0268741Y0041532D01*
X0268741Y0042968D02*
X0252396Y0042968D01*
X0253995Y0044566D02*
X0268741Y0044566D01*
X0268741Y0046165D02*
X0255593Y0046165D01*
X0257192Y0047763D02*
X0268741Y0047763D01*
X0268741Y0049362D02*
X0265558Y0049362D01*
X0265603Y0050960D02*
X0268394Y0050960D01*
X0266796Y0052559D02*
X0265603Y0052559D01*
X0272453Y0052559D02*
X0293505Y0052559D01*
X0293505Y0050960D02*
X0274051Y0050960D01*
X0274130Y0050881D02*
X0273620Y0051392D01*
X0265092Y0059919D01*
X0265603Y0060430D01*
X0265603Y0064180D01*
X0269731Y0060052D01*
X0276464Y0060052D01*
X0281225Y0064813D01*
X0281225Y0071546D01*
X0276464Y0076307D01*
X0269731Y0076307D01*
X0264970Y0071546D01*
X0264970Y0068688D01*
X0264665Y0068992D01*
X0261992Y0068992D01*
X0261992Y0069420D01*
X0258951Y0072460D01*
X0259965Y0073474D01*
X0259965Y0080207D01*
X0255885Y0084287D01*
X0294679Y0084326D01*
X0290560Y0080207D01*
X0290560Y0073474D01*
X0295321Y0068713D01*
X0296392Y0068713D01*
X0296392Y0066472D01*
X0294442Y0066472D01*
X0293505Y0065535D01*
X0293505Y0057910D01*
X0294442Y0056973D01*
X0302854Y0056973D01*
X0303792Y0057910D01*
X0303792Y0065535D01*
X0302854Y0066472D01*
X0300392Y0066472D01*
X0300392Y0068713D01*
X0302054Y0068713D01*
X0306815Y0073474D01*
X0306815Y0080207D01*
X0302688Y0084334D01*
X0340000Y0084371D01*
X0336229Y0080601D01*
X0336229Y0073868D01*
X0340990Y0069107D01*
X0342792Y0069107D01*
X0342792Y0065314D01*
X0342264Y0065842D01*
X0334639Y0065842D01*
X0333702Y0064905D01*
X0333702Y0058730D01*
X0333547Y0058575D01*
X0333508Y0058592D01*
X0332076Y0058592D01*
X0330752Y0058044D01*
X0329740Y0057031D01*
X0329192Y0055708D01*
X0329192Y0054276D01*
X0329740Y0052952D01*
X0330752Y0051940D01*
X0332076Y0051392D01*
X0333508Y0051392D01*
X0334831Y0051940D01*
X0335844Y0052952D01*
X0336392Y0054276D01*
X0336392Y0055556D01*
X0342264Y0055556D01*
X0342792Y0056083D01*
X0342792Y0055763D01*
X0352392Y0046163D01*
X0353563Y0044992D01*
X0372392Y0044992D01*
X0372392Y0042963D01*
X0372763Y0042592D01*
X0309620Y0042592D01*
X0303792Y0048420D01*
X0303792Y0054511D01*
X0302854Y0055448D01*
X0294442Y0055448D01*
X0293505Y0054511D01*
X0293505Y0046886D01*
X0294442Y0045949D01*
X0300606Y0045949D01*
X0307963Y0038592D01*
X0315963Y0038592D01*
X0315592Y0038220D01*
X0314946Y0037574D01*
X0308694Y0037574D01*
X0307757Y0036637D01*
X0307757Y0031655D01*
X0304020Y0035392D01*
X0296991Y0035392D01*
X0297192Y0035876D01*
X0297192Y0037308D01*
X0296644Y0038631D01*
X0295631Y0039644D01*
X0294308Y0040192D01*
X0292876Y0040192D01*
X0292836Y0040175D01*
X0289264Y0043748D01*
X0289264Y0049944D01*
X0288327Y0050881D01*
X0280702Y0050881D01*
X0279765Y0049944D01*
X0279765Y0044447D01*
X0278240Y0045971D01*
X0278240Y0049944D01*
X0277303Y0050881D01*
X0274130Y0050881D01*
X0278240Y0049362D02*
X0279765Y0049362D01*
X0279765Y0047763D02*
X0278240Y0047763D01*
X0278240Y0046165D02*
X0279765Y0046165D01*
X0279765Y0044566D02*
X0279645Y0044566D01*
X0289264Y0044566D02*
X0301988Y0044566D01*
X0303587Y0042968D02*
X0290044Y0042968D01*
X0291642Y0041369D02*
X0305185Y0041369D01*
X0309244Y0042968D02*
X0372392Y0042968D01*
X0372392Y0044566D02*
X0307645Y0044566D01*
X0306047Y0046165D02*
X0352390Y0046165D01*
X0350791Y0047763D02*
X0304448Y0047763D01*
X0303792Y0049362D02*
X0349193Y0049362D01*
X0347594Y0050960D02*
X0303792Y0050960D01*
X0303792Y0052559D02*
X0330133Y0052559D01*
X0335450Y0052559D02*
X0345996Y0052559D01*
X0351653Y0052559D02*
X0374201Y0052559D01*
X0374201Y0050960D02*
X0353251Y0050960D01*
X0354850Y0049362D02*
X0373933Y0049362D01*
X0374201Y0049630D02*
X0373563Y0048992D01*
X0355220Y0048992D01*
X0348656Y0055556D01*
X0353287Y0055556D01*
X0354225Y0056493D01*
X0354225Y0059392D01*
X0360020Y0059392D01*
X0361662Y0061034D01*
X0362250Y0060445D01*
X0368983Y0060445D01*
X0373744Y0065206D01*
X0373744Y0071939D01*
X0368983Y0076700D01*
X0362250Y0076700D01*
X0357489Y0071939D01*
X0357489Y0065206D01*
X0358833Y0063862D01*
X0358363Y0063392D01*
X0354225Y0063392D01*
X0354225Y0064905D01*
X0353287Y0065842D01*
X0346792Y0065842D01*
X0346792Y0069107D01*
X0347723Y0069107D01*
X0352484Y0073868D01*
X0352484Y0080601D01*
X0348706Y0084380D01*
X0385714Y0084417D01*
X0381505Y0080207D01*
X0381505Y0073474D01*
X0386266Y0068713D01*
X0391592Y0068713D01*
X0391592Y0067063D01*
X0389915Y0067063D01*
X0388977Y0066125D01*
X0388977Y0057713D01*
X0389915Y0056776D01*
X0397539Y0056776D01*
X0398477Y0057713D01*
X0398477Y0066125D01*
X0397539Y0067063D01*
X0395592Y0067063D01*
X0395592Y0071306D01*
X0397760Y0073474D01*
X0397760Y0080207D01*
X0393543Y0084424D01*
X0428671Y0084459D01*
X0424418Y0080207D01*
X0424418Y0073474D01*
X0429179Y0068713D01*
X0434792Y0068713D01*
X0434792Y0066669D01*
X0433537Y0066669D01*
X0432599Y0065732D01*
X0432599Y0057320D01*
X0433537Y0056382D01*
X0441161Y0056382D01*
X0442099Y0057320D01*
X0442099Y0065732D01*
X0441161Y0066669D01*
X0438792Y0066669D01*
X0438792Y0071592D01*
X0440673Y0073474D01*
X0440673Y0080207D01*
X0436413Y0084467D01*
X0460349Y0084491D01*
X0460304Y0073175D01*
X0457172Y0076307D01*
X0450439Y0076307D01*
X0445678Y0071546D01*
X0445678Y0064813D01*
X0450439Y0060052D01*
X0457172Y0060052D01*
X0460264Y0063144D01*
X0460086Y0018207D01*
X0438207Y0018251D01*
X0441461Y0021505D01*
X0441461Y0028239D01*
X0436700Y0033000D01*
X0429967Y0033000D01*
X0425206Y0028239D01*
X0425206Y0027392D01*
X0423220Y0027392D01*
X0421114Y0029497D01*
X0421114Y0036322D01*
X0420177Y0037259D01*
X0411765Y0037259D01*
X0410828Y0036322D01*
X0410828Y0034592D01*
X0400392Y0034592D01*
X0400392Y0035644D01*
X0401764Y0035644D01*
X0402701Y0036582D01*
X0402701Y0043392D01*
X0410828Y0043392D01*
X0410828Y0039721D01*
X0411765Y0038784D01*
X0420177Y0038784D01*
X0421114Y0039721D01*
X0421114Y0047346D01*
X0420177Y0048283D01*
X0411765Y0048283D01*
X0410874Y0047392D01*
X0402701Y0047392D01*
X0402701Y0051392D01*
X0418420Y0051392D01*
X0423411Y0056382D01*
X0430138Y0056382D01*
X0431075Y0057320D01*
X0431075Y0065732D01*
X0430138Y0066669D01*
X0422513Y0066669D01*
X0421576Y0065732D01*
X0421576Y0060204D01*
X0416763Y0055392D01*
X0399265Y0055392D01*
X0398512Y0055447D01*
X0398448Y0055392D01*
X0398363Y0055392D01*
X0398016Y0055044D01*
X0396539Y0055044D01*
X0395601Y0054107D01*
X0395601Y0049792D01*
X0381301Y0049792D01*
X0381301Y0054107D01*
X0380392Y0055017D01*
X0380392Y0056563D01*
X0380604Y0056776D01*
X0386516Y0056776D01*
X0387453Y0057713D01*
X0387453Y0066125D01*
X0386516Y0067063D01*
X0378891Y0067063D01*
X0377954Y0066125D01*
X0377954Y0059782D01*
X0376392Y0058220D01*
X0376392Y0055044D01*
X0375139Y0055044D01*
X0374201Y0054107D01*
X0374201Y0049630D01*
X0381301Y0050960D02*
X0395601Y0050960D01*
X0395601Y0052559D02*
X0381301Y0052559D01*
X0381251Y0054157D02*
X0395652Y0054157D01*
X0398118Y0057355D02*
X0418726Y0057355D01*
X0420324Y0058953D02*
X0398477Y0058953D01*
X0398477Y0060552D02*
X0407026Y0060552D01*
X0407526Y0060052D02*
X0414259Y0060052D01*
X0419020Y0064813D01*
X0419020Y0071546D01*
X0414259Y0076307D01*
X0407526Y0076307D01*
X0402765Y0071546D01*
X0402765Y0064813D01*
X0407526Y0060052D01*
X0414759Y0060552D02*
X0421576Y0060552D01*
X0421576Y0062150D02*
X0416357Y0062150D01*
X0417956Y0063749D02*
X0421576Y0063749D01*
X0421576Y0065347D02*
X0419020Y0065347D01*
X0419020Y0066946D02*
X0434792Y0066946D01*
X0434792Y0068544D02*
X0419020Y0068544D01*
X0419020Y0070143D02*
X0427750Y0070143D01*
X0426151Y0071741D02*
X0418824Y0071741D01*
X0417226Y0073340D02*
X0424553Y0073340D01*
X0424418Y0074938D02*
X0415627Y0074938D01*
X0424418Y0076537D02*
X0397760Y0076537D01*
X0397760Y0078135D02*
X0424418Y0078135D01*
X0424418Y0079734D02*
X0397760Y0079734D01*
X0396635Y0081332D02*
X0425543Y0081332D01*
X0427142Y0082931D02*
X0395036Y0082931D01*
X0384229Y0082931D02*
X0350155Y0082931D01*
X0351753Y0081332D02*
X0382630Y0081332D01*
X0381505Y0079734D02*
X0352484Y0079734D01*
X0352484Y0078135D02*
X0381505Y0078135D01*
X0381505Y0076537D02*
X0369147Y0076537D01*
X0370746Y0074938D02*
X0381505Y0074938D01*
X0381639Y0073340D02*
X0372344Y0073340D01*
X0373744Y0071741D02*
X0383238Y0071741D01*
X0384836Y0070143D02*
X0373744Y0070143D01*
X0373744Y0068544D02*
X0391592Y0068544D01*
X0389798Y0066946D02*
X0386633Y0066946D01*
X0387453Y0065347D02*
X0388977Y0065347D01*
X0388977Y0063749D02*
X0387453Y0063749D01*
X0387453Y0062150D02*
X0388977Y0062150D01*
X0388977Y0060552D02*
X0387453Y0060552D01*
X0387453Y0058953D02*
X0388977Y0058953D01*
X0389336Y0057355D02*
X0387094Y0057355D01*
X0380392Y0055756D02*
X0417127Y0055756D01*
X0421186Y0054157D02*
X0460229Y0054157D01*
X0460235Y0055756D02*
X0422784Y0055756D01*
X0431075Y0057355D02*
X0432599Y0057355D01*
X0432599Y0058953D02*
X0431075Y0058953D01*
X0431075Y0060552D02*
X0432599Y0060552D01*
X0432599Y0062150D02*
X0431075Y0062150D01*
X0431075Y0063749D02*
X0432599Y0063749D01*
X0432599Y0065347D02*
X0431075Y0065347D01*
X0438792Y0066946D02*
X0445678Y0066946D01*
X0445678Y0068544D02*
X0438792Y0068544D01*
X0438792Y0070143D02*
X0445678Y0070143D01*
X0445874Y0071741D02*
X0438941Y0071741D01*
X0440539Y0073340D02*
X0447472Y0073340D01*
X0449071Y0074938D02*
X0440673Y0074938D01*
X0440673Y0076537D02*
X0460317Y0076537D01*
X0460324Y0078135D02*
X0440673Y0078135D01*
X0440673Y0079734D02*
X0460330Y0079734D01*
X0460337Y0081332D02*
X0439548Y0081332D01*
X0437950Y0082931D02*
X0460343Y0082931D01*
X0460311Y0074938D02*
X0458541Y0074938D01*
X0460139Y0073340D02*
X0460305Y0073340D01*
X0445678Y0065347D02*
X0442099Y0065347D01*
X0442099Y0063749D02*
X0446742Y0063749D01*
X0448341Y0062150D02*
X0442099Y0062150D01*
X0442099Y0060552D02*
X0449939Y0060552D01*
X0457672Y0060552D02*
X0460254Y0060552D01*
X0460260Y0062150D02*
X0459271Y0062150D01*
X0460248Y0058953D02*
X0442099Y0058953D01*
X0442099Y0057355D02*
X0460241Y0057355D01*
X0460222Y0052559D02*
X0419587Y0052559D01*
X0420697Y0047763D02*
X0460203Y0047763D01*
X0460210Y0049362D02*
X0402701Y0049362D01*
X0402701Y0050960D02*
X0460216Y0050960D01*
X0460197Y0046165D02*
X0421114Y0046165D01*
X0421114Y0044566D02*
X0460191Y0044566D01*
X0460184Y0042968D02*
X0421114Y0042968D01*
X0421114Y0041369D02*
X0460178Y0041369D01*
X0460172Y0039771D02*
X0421114Y0039771D01*
X0420863Y0036574D02*
X0460159Y0036574D01*
X0460165Y0038172D02*
X0402701Y0038172D01*
X0402694Y0036574D02*
X0411080Y0036574D01*
X0410828Y0034975D02*
X0400392Y0034975D01*
X0396392Y0034975D02*
X0384404Y0034975D01*
X0385192Y0035763D02*
X0381992Y0032563D01*
X0380820Y0031392D01*
X0350512Y0031392D01*
X0353272Y0028632D01*
X0353272Y0021899D01*
X0349800Y0018428D01*
X0385441Y0018356D01*
X0382292Y0021505D01*
X0382292Y0028239D01*
X0387053Y0033000D01*
X0393786Y0033000D01*
X0394879Y0031907D01*
X0396392Y0033420D01*
X0396392Y0035792D01*
X0395601Y0036582D01*
X0395601Y0043392D01*
X0388991Y0043392D01*
X0388644Y0042552D01*
X0387631Y0041540D01*
X0386308Y0040992D01*
X0385192Y0040992D01*
X0385192Y0035763D01*
X0385192Y0036574D02*
X0395609Y0036574D01*
X0395601Y0038172D02*
X0385192Y0038172D01*
X0385192Y0039771D02*
X0395601Y0039771D01*
X0402701Y0039771D02*
X0410828Y0039771D01*
X0410828Y0041369D02*
X0402701Y0041369D01*
X0402701Y0042968D02*
X0410828Y0042968D01*
X0395601Y0042968D02*
X0388816Y0042968D01*
X0387219Y0041369D02*
X0395601Y0041369D01*
X0402701Y0047763D02*
X0411245Y0047763D01*
X0376392Y0055756D02*
X0353488Y0055756D01*
X0354225Y0057355D02*
X0376392Y0057355D01*
X0377124Y0058953D02*
X0354225Y0058953D01*
X0361180Y0060552D02*
X0362144Y0060552D01*
X0369090Y0060552D02*
X0377954Y0060552D01*
X0377954Y0062150D02*
X0370688Y0062150D01*
X0372287Y0063749D02*
X0377954Y0063749D01*
X0377954Y0065347D02*
X0373744Y0065347D01*
X0373744Y0066946D02*
X0378774Y0066946D01*
X0395592Y0068544D02*
X0402765Y0068544D01*
X0402765Y0066946D02*
X0397656Y0066946D01*
X0398477Y0065347D02*
X0402765Y0065347D01*
X0403829Y0063749D02*
X0398477Y0063749D01*
X0398477Y0062150D02*
X0405427Y0062150D01*
X0402765Y0070143D02*
X0395592Y0070143D01*
X0396027Y0071741D02*
X0402960Y0071741D01*
X0404559Y0073340D02*
X0397626Y0073340D01*
X0397760Y0074938D02*
X0406157Y0074938D01*
X0362087Y0076537D02*
X0352484Y0076537D01*
X0352484Y0074938D02*
X0360488Y0074938D01*
X0358889Y0073340D02*
X0351956Y0073340D01*
X0350358Y0071741D02*
X0357489Y0071741D01*
X0357489Y0070143D02*
X0348759Y0070143D01*
X0346792Y0068544D02*
X0357489Y0068544D01*
X0357489Y0066946D02*
X0346792Y0066946D01*
X0342792Y0066946D02*
X0328075Y0066946D01*
X0328075Y0068544D02*
X0342792Y0068544D01*
X0339954Y0070143D02*
X0328075Y0070143D01*
X0328075Y0071546D02*
X0323314Y0076307D01*
X0316581Y0076307D01*
X0311820Y0071546D01*
X0311820Y0064813D01*
X0316581Y0060052D01*
X0323314Y0060052D01*
X0328075Y0064813D01*
X0328075Y0071546D01*
X0327880Y0071741D02*
X0338356Y0071741D01*
X0336757Y0073340D02*
X0326281Y0073340D01*
X0324683Y0074938D02*
X0336229Y0074938D01*
X0336229Y0076537D02*
X0306815Y0076537D01*
X0306815Y0078135D02*
X0336229Y0078135D01*
X0336229Y0079734D02*
X0306815Y0079734D01*
X0305690Y0081332D02*
X0336961Y0081332D01*
X0338559Y0082931D02*
X0304092Y0082931D01*
X0293284Y0082931D02*
X0257241Y0082931D01*
X0258840Y0081332D02*
X0291685Y0081332D01*
X0290560Y0079734D02*
X0259965Y0079734D01*
X0259965Y0078135D02*
X0290560Y0078135D01*
X0290560Y0076537D02*
X0259965Y0076537D01*
X0259965Y0074938D02*
X0268362Y0074938D01*
X0266764Y0073340D02*
X0259830Y0073340D01*
X0259671Y0071741D02*
X0265165Y0071741D01*
X0264970Y0070143D02*
X0261269Y0070143D01*
X0256763Y0068992D02*
X0256253Y0068992D01*
X0255316Y0068054D01*
X0255316Y0062592D01*
X0235163Y0062592D01*
X0233992Y0061420D01*
X0232792Y0060220D01*
X0232271Y0060741D01*
X0236343Y0064813D01*
X0236343Y0071546D01*
X0231582Y0076307D01*
X0224849Y0076307D01*
X0220088Y0071546D01*
X0220088Y0064813D01*
X0223909Y0060992D01*
X0219963Y0060992D01*
X0218792Y0059820D01*
X0217563Y0058592D01*
X0214028Y0058592D01*
X0214028Y0064984D01*
X0213091Y0065921D01*
X0210792Y0065921D01*
X0210792Y0069183D01*
X0215083Y0073474D01*
X0215083Y0080207D01*
X0211047Y0084243D01*
X0247782Y0084279D01*
X0243710Y0080207D01*
X0243710Y0073474D01*
X0248471Y0068713D01*
X0255204Y0068713D01*
X0256123Y0069632D01*
X0256763Y0068992D01*
X0255806Y0068544D02*
X0236343Y0068544D01*
X0236343Y0066946D02*
X0255316Y0066946D01*
X0255316Y0065347D02*
X0236343Y0065347D01*
X0235279Y0063749D02*
X0255316Y0063749D01*
X0265603Y0063749D02*
X0266034Y0063749D01*
X0265603Y0062150D02*
X0267632Y0062150D01*
X0269231Y0060552D02*
X0265603Y0060552D01*
X0266059Y0058953D02*
X0293505Y0058953D01*
X0294061Y0057355D02*
X0267657Y0057355D01*
X0269256Y0055756D02*
X0329212Y0055756D01*
X0329241Y0054157D02*
X0303792Y0054157D01*
X0303236Y0057355D02*
X0330063Y0057355D01*
X0333702Y0058953D02*
X0303792Y0058953D01*
X0303792Y0060552D02*
X0316081Y0060552D01*
X0314482Y0062150D02*
X0303792Y0062150D01*
X0303792Y0063749D02*
X0312884Y0063749D01*
X0311820Y0065347D02*
X0303792Y0065347D01*
X0300392Y0066946D02*
X0311820Y0066946D01*
X0311820Y0068544D02*
X0300392Y0068544D01*
X0303484Y0070143D02*
X0311820Y0070143D01*
X0312015Y0071741D02*
X0305082Y0071741D01*
X0306681Y0073340D02*
X0313614Y0073340D01*
X0315212Y0074938D02*
X0306815Y0074938D01*
X0292293Y0071741D02*
X0281029Y0071741D01*
X0281225Y0070143D02*
X0293891Y0070143D01*
X0296392Y0068544D02*
X0281225Y0068544D01*
X0281225Y0066946D02*
X0296392Y0066946D01*
X0293505Y0065347D02*
X0281225Y0065347D01*
X0280161Y0063749D02*
X0293505Y0063749D01*
X0293505Y0062150D02*
X0278562Y0062150D01*
X0276964Y0060552D02*
X0293505Y0060552D01*
X0293505Y0054157D02*
X0270854Y0054157D01*
X0255316Y0054157D02*
X0244392Y0054157D01*
X0244392Y0055756D02*
X0255316Y0055756D01*
X0255600Y0057355D02*
X0244392Y0057355D01*
X0233992Y0061420D02*
X0233992Y0061420D01*
X0233680Y0062150D02*
X0234721Y0062150D01*
X0233123Y0060552D02*
X0232460Y0060552D01*
X0222750Y0062150D02*
X0214028Y0062150D01*
X0214028Y0060552D02*
X0219523Y0060552D01*
X0217924Y0058953D02*
X0214028Y0058953D01*
X0203741Y0060552D02*
X0186412Y0060552D01*
X0188011Y0062150D02*
X0203741Y0062150D01*
X0203741Y0063749D02*
X0189609Y0063749D01*
X0191067Y0065347D02*
X0204105Y0065347D01*
X0206792Y0066946D02*
X0191067Y0066946D01*
X0191067Y0068544D02*
X0206792Y0068544D01*
X0210792Y0068544D02*
X0220088Y0068544D01*
X0220088Y0066946D02*
X0210792Y0066946D01*
X0213664Y0065347D02*
X0220088Y0065347D01*
X0221152Y0063749D02*
X0214028Y0063749D01*
X0211752Y0070143D02*
X0220088Y0070143D01*
X0220283Y0071741D02*
X0213350Y0071741D01*
X0214949Y0073340D02*
X0221882Y0073340D01*
X0223480Y0074938D02*
X0215083Y0074938D01*
X0215083Y0076537D02*
X0243710Y0076537D01*
X0243710Y0078135D02*
X0215083Y0078135D01*
X0215083Y0079734D02*
X0243710Y0079734D01*
X0244835Y0081332D02*
X0213958Y0081332D01*
X0212359Y0082931D02*
X0246433Y0082931D01*
X0243710Y0074938D02*
X0232950Y0074938D01*
X0234549Y0073340D02*
X0243844Y0073340D01*
X0245443Y0071741D02*
X0236147Y0071741D01*
X0236343Y0070143D02*
X0247041Y0070143D01*
X0277832Y0074938D02*
X0290560Y0074938D01*
X0290694Y0073340D02*
X0279431Y0073340D01*
X0323814Y0060552D02*
X0333702Y0060552D01*
X0333702Y0062150D02*
X0325413Y0062150D01*
X0327011Y0063749D02*
X0333702Y0063749D01*
X0334144Y0065347D02*
X0328075Y0065347D01*
X0342759Y0065347D02*
X0342792Y0065347D01*
X0353782Y0065347D02*
X0357489Y0065347D01*
X0358720Y0063749D02*
X0354225Y0063749D01*
X0342799Y0055756D02*
X0342464Y0055756D01*
X0344397Y0054157D02*
X0336343Y0054157D01*
X0350054Y0054157D02*
X0374252Y0054157D01*
X0315544Y0038172D02*
X0296833Y0038172D01*
X0297192Y0036574D02*
X0307757Y0036574D01*
X0307757Y0034975D02*
X0304436Y0034975D01*
X0306035Y0033377D02*
X0307757Y0033377D01*
X0307757Y0031778D02*
X0307633Y0031778D01*
X0319140Y0026511D02*
X0320664Y0028036D01*
X0326634Y0028036D01*
X0327571Y0028973D01*
X0327571Y0031392D01*
X0339776Y0031392D01*
X0337017Y0028632D01*
X0337017Y0026592D01*
X0324763Y0026592D01*
X0324683Y0026511D01*
X0319140Y0026511D01*
X0319611Y0026983D02*
X0337017Y0026983D01*
X0337017Y0028581D02*
X0327179Y0028581D01*
X0327571Y0030180D02*
X0338564Y0030180D01*
X0351724Y0030180D02*
X0384234Y0030180D01*
X0385832Y0031778D02*
X0381207Y0031778D01*
X0382805Y0033377D02*
X0396348Y0033377D01*
X0399220Y0030592D02*
X0410828Y0030592D01*
X0410828Y0028697D01*
X0411765Y0027760D01*
X0417195Y0027760D01*
X0421563Y0023392D01*
X0423220Y0023392D01*
X0425206Y0023392D01*
X0425206Y0021505D01*
X0428441Y0018271D01*
X0395379Y0018337D01*
X0398547Y0021505D01*
X0398547Y0028239D01*
X0397707Y0029079D01*
X0399220Y0030592D01*
X0398808Y0030180D02*
X0410828Y0030180D01*
X0410944Y0028581D02*
X0398205Y0028581D01*
X0398547Y0026983D02*
X0417972Y0026983D01*
X0422030Y0028581D02*
X0425548Y0028581D01*
X0427147Y0030180D02*
X0421114Y0030180D01*
X0421114Y0031778D02*
X0428746Y0031778D01*
X0421114Y0033377D02*
X0460146Y0033377D01*
X0460140Y0031778D02*
X0437921Y0031778D01*
X0439520Y0030180D02*
X0460134Y0030180D01*
X0460127Y0028581D02*
X0441118Y0028581D01*
X0441461Y0026983D02*
X0460121Y0026983D01*
X0460115Y0025384D02*
X0441461Y0025384D01*
X0441461Y0023786D02*
X0460108Y0023786D01*
X0460102Y0022187D02*
X0441461Y0022187D01*
X0440544Y0020589D02*
X0460096Y0020589D01*
X0460089Y0018990D02*
X0438946Y0018990D01*
X0427721Y0018990D02*
X0396032Y0018990D01*
X0397631Y0020589D02*
X0426123Y0020589D01*
X0425206Y0022187D02*
X0398547Y0022187D01*
X0398547Y0023786D02*
X0421169Y0023786D01*
X0419571Y0025384D02*
X0398547Y0025384D01*
X0383209Y0020589D02*
X0351961Y0020589D01*
X0353272Y0022187D02*
X0382292Y0022187D01*
X0382292Y0023786D02*
X0353272Y0023786D01*
X0353272Y0025384D02*
X0382292Y0025384D01*
X0382292Y0026983D02*
X0353272Y0026983D01*
X0353272Y0028581D02*
X0382635Y0028581D01*
X0372763Y0035392D02*
X0327571Y0035392D01*
X0372763Y0035392D01*
X0372763Y0035392D01*
X0340470Y0018446D02*
X0337017Y0021899D01*
X0337017Y0022592D01*
X0327571Y0022592D01*
X0327571Y0018472D01*
X0340470Y0018446D01*
X0339926Y0018990D02*
X0327571Y0018990D01*
X0327571Y0020589D02*
X0338327Y0020589D01*
X0337017Y0022187D02*
X0327571Y0022187D01*
X0307757Y0020192D02*
X0307757Y0018512D01*
X0304615Y0018518D01*
X0306289Y0020192D01*
X0307757Y0020192D01*
X0307757Y0018990D02*
X0305087Y0018990D01*
X0293863Y0018990D02*
X0258237Y0018990D01*
X0259835Y0020589D02*
X0292264Y0020589D01*
X0291348Y0022187D02*
X0260752Y0022187D01*
X0260752Y0023786D02*
X0291348Y0023786D01*
X0291348Y0025384D02*
X0260752Y0025384D01*
X0260752Y0026983D02*
X0291348Y0026983D01*
X0291690Y0028581D02*
X0260409Y0028581D01*
X0258811Y0030180D02*
X0293289Y0030180D01*
X0286777Y0031778D02*
X0257212Y0031778D01*
X0248037Y0031778D02*
X0242640Y0031778D01*
X0242805Y0033377D02*
X0285178Y0033377D01*
X0288820Y0035392D02*
X0283617Y0040595D01*
X0286760Y0040595D01*
X0290008Y0037347D01*
X0289992Y0037308D01*
X0289992Y0035876D01*
X0290192Y0035392D01*
X0288820Y0035392D01*
X0289992Y0036574D02*
X0287638Y0036574D01*
X0289183Y0038172D02*
X0286039Y0038172D01*
X0287584Y0039771D02*
X0284441Y0039771D01*
X0295324Y0039771D02*
X0306784Y0039771D01*
X0327571Y0035392D02*
X0327571Y0035392D01*
X0307949Y0025806D02*
X0307757Y0025614D01*
X0307757Y0024192D01*
X0307603Y0024192D01*
X0307603Y0026152D01*
X0307949Y0025806D01*
X0307757Y0025384D02*
X0307603Y0025384D01*
X0350363Y0018990D02*
X0384808Y0018990D01*
X0421114Y0034975D02*
X0460153Y0034975D01*
X0294227Y0046165D02*
X0289264Y0046165D01*
X0289264Y0047763D02*
X0293505Y0047763D01*
X0293505Y0049362D02*
X0289264Y0049362D01*
X0255316Y0052559D02*
X0244392Y0052559D01*
X0244392Y0050960D02*
X0254732Y0050960D01*
X0253133Y0049362D02*
X0244392Y0049362D01*
X0244392Y0047763D02*
X0251535Y0047763D01*
X0240392Y0047763D02*
X0238792Y0047763D01*
X0239592Y0049362D02*
X0240392Y0049362D01*
X0240392Y0050960D02*
X0239592Y0050960D01*
X0230992Y0043392D02*
X0220226Y0043392D01*
X0220760Y0042858D01*
X0220760Y0037052D01*
X0223240Y0034572D01*
X0223240Y0036470D01*
X0224177Y0037407D01*
X0226677Y0037407D01*
X0226779Y0037407D01*
X0230808Y0041436D01*
X0230792Y0041476D01*
X0230792Y0042908D01*
X0230992Y0043392D01*
X0230816Y0042968D02*
X0220650Y0042968D01*
X0220760Y0041369D02*
X0230741Y0041369D01*
X0229142Y0039771D02*
X0220760Y0039771D01*
X0220760Y0038172D02*
X0227544Y0038172D01*
X0223344Y0036574D02*
X0221238Y0036574D01*
X0222836Y0034975D02*
X0223240Y0034975D01*
X0211261Y0034975D02*
X0209736Y0034975D01*
X0209736Y0036574D02*
X0211261Y0036574D01*
X0211261Y0038172D02*
X0209736Y0038172D01*
X0209736Y0039771D02*
X0211261Y0039771D01*
X0210785Y0041369D02*
X0209736Y0041369D01*
X0237192Y0030180D02*
X0246438Y0030180D01*
X0244840Y0028581D02*
X0237192Y0028581D01*
X0237855Y0026983D02*
X0244497Y0026983D01*
X0244497Y0025384D02*
X0238477Y0025384D01*
X0238477Y0023786D02*
X0244497Y0023786D01*
X0244497Y0022187D02*
X0238477Y0022187D01*
X0238477Y0020589D02*
X0245414Y0020589D01*
X0247012Y0018990D02*
X0238477Y0018990D01*
X0103308Y0057792D02*
X0103308Y0057792D01*
X0096767Y0057792D01*
X0096767Y0057792D01*
X0103308Y0057792D01*
X0085924Y0058953D02*
X0085606Y0058953D01*
X0087270Y0067289D02*
X0084766Y0069793D01*
X0087270Y0072298D01*
X0089775Y0069793D01*
X0087270Y0067289D01*
X0086015Y0068544D02*
X0088526Y0068544D01*
X0089426Y0070143D02*
X0085115Y0070143D01*
X0086713Y0071741D02*
X0087827Y0071741D01*
X0068414Y0082931D02*
X0112181Y0082931D01*
X0123777Y0082931D02*
X0155882Y0082931D01*
X0154284Y0081332D02*
X0125375Y0081332D01*
X0126107Y0079734D02*
X0153552Y0079734D01*
X0153552Y0078135D02*
X0126107Y0078135D01*
X0126107Y0076537D02*
X0135709Y0076537D01*
X0134110Y0074938D02*
X0126107Y0074938D01*
X0125578Y0073340D02*
X0132512Y0073340D01*
X0142769Y0076537D02*
X0153552Y0076537D01*
X0153552Y0074938D02*
X0144368Y0074938D01*
X0145966Y0073340D02*
X0154080Y0073340D01*
X0155679Y0071741D02*
X0147366Y0071741D01*
X0147366Y0070143D02*
X0157277Y0070143D01*
X0158717Y0066946D02*
X0147366Y0066946D01*
X0147366Y0068544D02*
X0167611Y0068544D01*
X0171669Y0070143D02*
X0174812Y0070143D01*
X0174812Y0071741D02*
X0170071Y0071741D01*
X0169279Y0073340D02*
X0176212Y0073340D01*
X0177811Y0074938D02*
X0169807Y0074938D01*
X0169807Y0076537D02*
X0179409Y0076537D01*
X0186470Y0076537D02*
X0198828Y0076537D01*
X0198828Y0078135D02*
X0169807Y0078135D01*
X0169807Y0079734D02*
X0198828Y0079734D01*
X0199953Y0081332D02*
X0169076Y0081332D01*
X0167477Y0082931D02*
X0201551Y0082931D01*
X0198828Y0074938D02*
X0188068Y0074938D01*
X0189667Y0073340D02*
X0198962Y0073340D01*
X0200561Y0071741D02*
X0191067Y0071741D01*
X0191067Y0070143D02*
X0202159Y0070143D01*
X0174812Y0068544D02*
X0173268Y0068544D01*
X0162206Y0064192D02*
X0161620Y0064192D01*
X0160820Y0063392D01*
X0162206Y0063392D01*
X0162206Y0064192D01*
X0162206Y0063749D02*
X0161177Y0063749D01*
X0157119Y0065347D02*
X0155957Y0065347D01*
X0147245Y0065085D02*
X0147245Y0059392D01*
X0140020Y0059392D01*
X0138966Y0060445D01*
X0142605Y0060445D01*
X0147245Y0065085D01*
X0147245Y0063749D02*
X0145909Y0063749D01*
X0147245Y0062150D02*
X0144310Y0062150D01*
X0142712Y0060552D02*
X0147245Y0060552D01*
X0173192Y0060552D02*
X0174792Y0060552D01*
X0174005Y0062150D02*
X0173192Y0062150D01*
X0178792Y0060552D02*
X0179467Y0060552D01*
M02*
